<?xml version="1.0" encoding="utf-8"?>
<!-- Generator: Adobe Illustrator 23.0.1, SVG Export Plug-In . SVG Version: 6.00 Build 0)  -->
<svg version="1.1" id="Lager_1" xmlns="http://www.w3.org/2000/svg" xmlns:xlink="http://www.w3.org/1999/xlink" x="0px" y="0px"
	 viewBox="0 0 841.9 595.3" style="enable-background:new 0 0 841.9 595.3;" xml:space="preserve">
<g>
	<g>
		<path d="M441.1,300.1c0,0.5,0,0.9,0,1.4c0,0,0,0,0,0.1c-0.1,0.6-0.3,1.2-0.5,1.8c-0.6,1.3-1.5,2.3-2.6,3.1c-2,1.6-4.4,2.6-6.8,3.4
			c-1.5,0.4-3,0.8-4.5,1c-1.6,0.2-3.2,0.4-4.8,0.4c-1.8,0-3.5,0-5.3-0.2c-1.7-0.2-3.3-0.5-4.9-0.9c-2-0.5-3.9-1.2-5.7-2.2
			c-1.5-0.8-2.8-1.9-3.9-3.3c-0.9-1.2-1.4-2.6-1.2-4.2c0.2-1.4,0.9-2.5,1.8-3.5c1.1-1.2,2.3-2,3.7-2.7c1.4-0.8,2.9-1.3,4.5-1.8
			c0.7-0.2,1.3-0.3,2-0.5c0.4,1,1,1.8,2,2.2c1,0.5,2,0.5,2.9,0c0,0.2,0,0.3,0,0.5c0,1,0.6,1.6,1.6,1.6c1.1,0,2-0.3,2.9-0.9
			c0.9-0.6,1.4-1.4,1.3-2.6c0-0.3-0.1-0.6-0.2-0.9c0.1,0,0.1,0,0.2,0c0.7,0,1.4-0.1,2.1-0.5c0.1,0,0.2-0.1,0.3,0
			c1.1,0.2,2.1,0.3,3.2,0.6c2.1,0.5,4,1.1,5.9,2.1c0,0,0.1,0,0.1,0c0,0,0-0.1,0-0.1c-2.6-1.8-5.5-2.8-8.5-3.5
			c0.2-0.7,0.3-0.7,0.9-0.5c0,0,0,0,0,0c2.4,0.5,4.8,1.3,7,2.4c1.6,0.9,3.1,1.9,4.3,3.3c0.9,1,1.5,2.1,1.9,3.4
			C440.9,299.4,441,299.8,441.1,300.1z M416.3,304.7c-0.2-0.4-0.3-0.7-0.4-1.1c-0.7-1.9-1-3.9-1.4-5.9c-0.1-0.8-0.3-1.5-0.4-2.3
			c-0.1-0.3-0.1-0.4-0.5-0.4c-0.5,0-1,0.1-1.5,0.2c-0.1,0-0.2,0.1-0.2,0.2c-0.2,0.4-0.4,0.8-0.6,1.1c-0.7,1.1-1.4,2.2-2.1,3.3
			c-0.6,1-1.2,2-1.7,3.1c-0.1,0.3-0.2,0.7-0.2,1.1c0,0.3,0.2,0.6,0.5,0.7c0.5,0.2,1,0.1,1.6,0c-0.1-0.8,0.2-1.4,0.5-2.1
			c0-0.1,0.2-0.2,0.3-0.2c0.7-0.1,1.3-0.2,2-0.3c0.4,0,0.8,0,1.2,0c0,0.1,0,0.1,0,0.2c0.2,0.6,0.3,1.2,0.5,1.7
			c0.1,0.3,0.4,0.6,0.8,0.6C415.1,304.7,415.7,304.7,416.3,304.7z M433.5,304.6c-0.1-0.8-0.1-1.5,0-2.3c0.1-1.1,0.3-2.2,0.5-3.4
			c0.1-0.6-0.1-0.8-0.6-1c-0.3-0.1-0.7-0.2-1-0.2c-1.1-0.1-2.1,0-3,0.5c-1.7,0.9-2.7,2.9-2.3,4.8c0.2,1.1,1.1,1.8,2.2,1.6
			c0.5-0.1,1-0.3,1.4-0.6c0.3-0.3,0.7-0.6,1-0.9c0,0.1,0,0.3,0,0.4c0,0.1,0,0.3,0,0.4c0.1,0.4,0.2,0.6,0.6,0.7
			C432.6,304.8,433,304.7,433.5,304.6z M425.2,304.7c-0.2-0.8-0.1-1.5,0-2.2c0.1-0.9,0.3-1.7,0.4-2.6c0.2-1,0.3-2,0.5-2.9
			c0.1-0.7,0.2-1.5,0.2-2.2c0-0.3-0.1-0.5-0.4-0.5c-0.6,0-1.1,0.1-1.6,0.3c0,0-0.1,0.1-0.1,0.2c0,0.4,0,0.9,0,1.3
			c-0.2,1.9-0.5,3.7-0.9,5.5c-0.1,0.7-0.2,1.4-0.3,2.1c0,0.7,0.3,1.1,0.9,1.1C424.4,304.8,424.8,304.7,425.2,304.7z M419.3,304.7
			c0-0.3-0.1-0.6-0.1-0.8c0-1.1,0.3-2.2,0.9-3.1c0.1-0.2,0.3-0.4,0.5-0.6c0.5-0.5,1-0.6,1.6-0.3c0.3-0.5,0.6-0.9,0.6-1.5
			c0-0.4-0.2-0.6-0.6-0.6c-0.8,0-1.3,0.4-1.8,0.9c-0.3,0.4-0.6,0.8-0.9,1.1c0-0.2,0-0.3,0-0.5c0-0.4,0-0.7,0-1.1
			c0-0.2-0.1-0.3-0.3-0.3c-0.6,0-1.1,0.1-1.6,0.4c0,0.6,0,1.1,0,1.7c-0.1,1.2-0.3,2.3-0.4,3.5c-0.1,0.7,0.3,1.2,1,1.3
			C418.6,304.7,419,304.7,419.3,304.7z"/>
		<path d="M415.9,290c-0.4-0.2-0.8-0.4-1.1-0.7c-0.7-0.6-0.9-1.5-0.5-2.5c0.5-1.2,1.5-2.1,2.8-2.5c0.9-0.3,1.7,0,2.4,0.6
			c0.9,0.9,1.3,1.9,1.5,3.1c0,0.1,0,0.2,0,0.3c0,0.4-0.1,0.5-0.5,0.5c-0.5,0-1,0.1-1.3,0.6c-0.3,0.5-0.2,0.9,0.1,1.4
			c0.1,0.2,0.1,0.3,0.1,0.5c-0.5,1.2-1.2,2.1-2.6,2.4c-0.6,0.1-1.1,0-1.6-0.2c-1.2-0.6-1.9-1.7-1.9-3.1c0-0.2,0.1-0.5,0.2-0.7
			c0-0.1,0.1-0.1,0.2-0.1c0.5,0.1,1.1,0.2,1.6,0.3C415.4,290,415.7,290,415.9,290z"/>
		<path d="M424.8,288c0.5-0.2,0.9-0.6,1.2-1c0.5,0.4,0.6,0.9,0.7,1.5c0.1,1.5-0.9,2.6-2.6,2.7c-0.8,0-1.6-0.1-2.3-0.7
			c-0.3-0.2-0.5-0.6-0.5-1c0.2-1.2-0.1-2.2-0.4-3.3c-0.1-0.4-0.2-0.9-0.2-1.3c0-0.7,0.3-1,0.9-1.1c1.1-0.1,2.7,0.5,3.4,1.5
			c0.4,0.6,0.4,1.3,0.1,2C425.1,287.5,424.9,287.8,424.8,288z"/>
		<path d="M419.6,295.7c-0.9,0-1.2-0.4-1.2-1.1c0-0.4,0.1-0.7,0.2-1.1c0.4-0.9,0.9-1.8,1.6-2.5c0.4-0.4,0.8-0.5,1.3-0.2
			c1,0.6,1.5,1.4,1.5,2.6c0,0.5-0.3,1-0.7,1.3c-0.7,0.5-1.4,0.8-2.3,1C419.8,295.7,419.7,295.7,419.6,295.7z"/>
		<path d="M413,300.6c-0.8,0.1-1.7,0.1-2.5,0.2c0.7-1.1,1.3-2.3,2-3.5C412.7,298.4,412.8,299.5,413,300.6z"/>
		<path d="M429.9,303.2c-0.6,0-1-0.3-1-0.8c-0.2-1.2,0.5-2.8,1.8-3.3c0.4-0.1,0.8-0.2,1.1-0.1c0.1,0,0.2,0.1,0.2,0.2
			c-0.2,1.2-0.4,2.3-1.1,3.3C430.6,303,430.2,303.2,429.9,303.2z"/>
		<g>
			<path d="M421.5,290.8c-0.5-0.3-0.9-0.2-1.3,0.2c-0.7,0.7-1.3,1.6-1.6,2.5c-0.1,0.3-0.2,0.7-0.2,1.1c0,0.8,0.4,1.1,1.2,1.1
				c0.1,0,0.3,0,0.4-0.1c0.8-0.2,1.6-0.4,2.3-1c0.4-0.3,0.7-0.8,0.7-1.3C423,292.3,422.5,291.4,421.5,290.8z"/>
			<path d="M424.8,288c0.2-0.3,0.3-0.5,0.4-0.7c0.3-0.7,0.3-1.3-0.1-2c-0.7-1-2.3-1.6-3.4-1.5c-0.7,0.1-0.9,0.4-0.9,1.1
				c0,0.4,0.1,0.9,0.2,1.3c0.3,1.1,0.6,2.2,0.4,3.3c-0.1,0.4,0.1,0.8,0.5,1c0.7,0.5,1.5,0.7,2.3,0.7c1.6-0.1,2.7-1.2,2.6-2.7
				c0-0.6-0.2-1.1-0.7-1.5C425.6,287.4,425.3,287.8,424.8,288z"/>
			<path d="M419.2,290.9c-0.3-0.4-0.4-0.9-0.1-1.4c0.3-0.5,0.8-0.6,1.3-0.6c0.4,0,0.5,0,0.5-0.5c0-0.1,0-0.2,0-0.3
				c-0.2-1.2-0.6-2.3-1.5-3.1c-0.6-0.7-1.4-0.9-2.4-0.6c-1.3,0.4-2.2,1.3-2.8,2.5c-0.4,1-0.3,1.8,0.5,2.5c0.3,0.3,0.7,0.5,1.1,0.7
				c-0.2,0-0.5,0-0.7,0c-0.5-0.1-1.1-0.2-1.6-0.3c-0.1,0-0.2,0-0.2,0.1c-0.1,0.2-0.2,0.5-0.2,0.7c0,1.4,0.7,2.4,1.9,3.1
				c0.5,0.3,1.1,0.4,1.6,0.2c1.3-0.3,2.1-1.2,2.6-2.4C419.3,291.2,419.3,291,419.2,290.9z"/>
			<path d="M437.7,289.9c-0.7,0-1.1,0.5-1.1,1.1c0,0.7,0.5,1.2,1.1,1.2c0.6,0,1.2-0.5,1.2-1.2C438.9,290.4,438.3,289.9,437.7,289.9z
				 M437.7,291.9c-0.5,0-0.8-0.4-0.8-0.9c0-0.5,0.4-0.9,0.9-0.9c0.5,0,0.9,0.4,0.9,0.9C438.6,291.5,438.2,291.9,437.7,291.9z"/>
			<path d="M438.2,290.6c-0.1-0.2-0.2-0.2-0.4-0.2c-0.1,0-0.2,0-0.3,0c-0.2,0-0.3,0.1-0.2,0.2c0,0.3,0,0.6,0,0.8
				c0,0.1,0,0.2,0.2,0.2c0.2,0,0.2-0.1,0.2-0.2c0-0.1,0-0.2,0-0.2c0,0,0.1,0,0.1,0c0.1,0.1,0.2,0.2,0.2,0.3c0,0.3,0.2,0.2,0.5,0.2
				c-0.1-0.2-0.2-0.4-0.3-0.6C438.2,290.9,438.2,290.8,438.2,290.6z M437.8,290.8c-0.1,0-0.2,0.1-0.3,0.1c0-0.1,0-0.2,0-0.3
				c0.1,0,0.2,0,0.2,0.1C437.8,290.7,437.8,290.8,437.8,290.8z"/>
		</g>
	</g>
</g>
</svg>
