<?xml version="1.0" encoding="utf-8"?>
<!-- Generator: Adobe Illustrator 23.0.1, SVG Export Plug-In . SVG Version: 6.00 Build 0)  -->
<svg version="1.1" id="Lager_1" xmlns="http://www.w3.org/2000/svg" xmlns:xlink="http://www.w3.org/1999/xlink" x="0px" y="0px"
	 viewBox="0 0 151.5 103.2" style="enable-background:new 0 0 151.5 103.2;" xml:space="preserve">
<g>
	<g>
		<path d="M151.5,61.3c0,1.7,0,3.5,0,5.2c-0.1,0.1-0.2,0.2-0.2,0.3c-0.3,2.4-1,4.7-2.1,6.8c-2.3,4.7-5.8,8.5-9.9,11.7
			c-7.6,6.1-16.4,9.9-25.7,12.7c-5.5,1.7-11.1,2.9-16.8,3.7c-6,0.9-12,1.4-18,1.5c-6.7,0.1-13.3-0.1-19.9-0.9
			c-6.3-0.7-12.4-1.8-18.5-3.5c-7.4-2-14.6-4.6-21.3-8.5c-5.6-3.2-10.7-7-14.5-12.3c-3.4-4.7-5.2-9.8-4.5-15.7
			c0.7-5.1,3.2-9.4,6.6-13.1c4-4.3,8.8-7.6,14-10.3c5.4-2.8,11.1-5,16.9-6.6c2.5-0.7,5-1.3,7.5-1.9c1.5,3.8,3.9,6.7,7.5,8.4
			s7.3,1.8,11,0.1c0,0.7,0,1.3,0,1.8c0,3.8,2.3,6.1,6.1,6.2c4,0,7.7-1.2,11-3.3c3.5-2.2,5.3-5.4,4.9-9.7c-0.1-1.2-0.5-2.3-0.8-3.5
			c0.2,0,0.4,0,0.6,0c2.7,0,5.4-0.5,7.8-1.7c0.3-0.2,0.8-0.2,1.2-0.1c4,0.7,8,1.3,11.9,2.2c7.8,1.7,15.2,4.3,22.3,7.9
			c0.2,0.1,0.4,0.1,0.6,0.2c0-0.1,0.1-0.2,0.1-0.3c-9.7-6.8-20.7-10.4-32-13.1c0.9-2.6,1-2.6,3.5-2c0.1,0,0.1,0,0.2,0
			c9.2,1.8,17.9,4.7,26.2,9.1c6.1,3.2,11.6,7.2,16.2,12.4c3.3,3.7,5.8,7.9,7,12.8C151,58.8,151.2,60.1,151.5,61.3z M58.2,78.6
			c-0.6-1.6-1.2-2.8-1.7-4.1c-2.5-7.2-3.9-14.6-5.4-22.1c-0.6-2.9-1-5.8-1.6-8.7c-0.2-1.2-0.5-1.5-1.7-1.4c-1.9,0.2-3.7,0.5-5.6,0.8
			c-0.3,0-0.6,0.4-0.8,0.6c-0.8,1.4-1.4,2.8-2.2,4.2c-2.6,4.2-5.3,8.3-7.9,12.4C29,64,26.6,67.7,25,71.8c-0.5,1.3-0.8,2.7-0.9,4
			s0.6,2.2,1.8,2.6c1.9,0.6,3.9,0.3,5.8,0c-0.3-2.9,0.6-5.4,1.8-7.9c0.2-0.3,0.6-0.6,1-0.7c2.5-0.4,5-0.8,7.5-1.1
			c1.5-0.2,3.1,0,4.7,0c0,0.2,0.1,0.5,0.2,0.8c0.6,2.2,1.2,4.4,1.9,6.5c0.5,1.3,1.6,2.2,3,2.3C54,78.7,56.1,78.6,58.2,78.6z
			 M122.9,78.1c-0.6-2.9-0.5-5.7-0.1-8.5c0.5-4.2,1.1-8.4,1.8-12.6c0.3-2.1-0.2-3.1-2.3-3.6c-1.2-0.3-2.5-0.6-3.8-0.7
			c-4-0.5-7.8,0-11.3,1.9c-6.5,3.5-10.1,10.9-8.8,18.2c0.7,4.2,4,6.7,8.1,6.1c1.9-0.3,3.7-1,5.2-2.2c1.3-1,2.4-2.1,3.8-3.3
			c0,0.5,0,1,0,1.5s0,1,0.1,1.5c0.2,1.4,0.8,2.1,2.2,2.5C119.5,79.1,121.2,78.6,122.9,78.1z M92,78.7c-0.7-3-0.5-5.7-0.1-8.4
			c0.5-3.3,1.1-6.5,1.6-9.8c0.6-3.7,1.3-7.3,1.8-11c0.4-2.7,0.6-5.5,0.9-8.2c0.1-1.1-0.5-1.8-1.6-1.8c-2.1-0.1-4.1,0.2-5.9,1.2
			c-0.2,0.1-0.4,0.4-0.4,0.6c0,1.6,0.1,3.3-0.1,4.9c-0.6,7-2,13.9-3.3,20.7c-0.5,2.6-0.9,5.2-1.1,7.7s1.2,4.1,3.4,4.2
			C88.7,78.9,90.3,78.7,92,78.7z M69.7,78.6c-0.1-1.1-0.4-2.1-0.4-3.1c0.1-4.2,1.1-8.2,3.3-11.8c0.5-0.8,1.1-1.6,1.8-2.3
			c1.7-1.7,3.8-2.1,6.1-1.2c1-1.8,2.1-3.5,2.2-5.6c0-1.6-0.8-2.4-2.4-2.4c-2.8,0-5,1.5-6.8,3.5c-1.2,1.3-2.2,2.9-3.2,4.3
			c0.1-0.6,0.1-1.3,0.2-1.9c0-1.3,0-2.7,0-4c0-0.7-0.3-1.1-1-1.2c-2.2-0.1-4.3,0.4-6.1,1.4c0,2.2,0.2,4.2,0,6.2
			c-0.4,4.4-1,8.7-1.6,13.1c-0.4,2.8,1,4.7,3.7,4.9C67,78.7,68.4,78.6,69.7,78.6z"/>
		<path d="M56.8,23.5c-1.4-0.9-3-1.6-4.2-2.7c-2.8-2.4-3.4-5.6-1.8-9.3c2.1-4.7,5.6-7.9,10.5-9.5c3.4-1.1,6.4,0,8.8,2.4
			c3.2,3.2,4.9,7.2,5.5,11.7c0,0.4,0,0.7,0,1.1c0,1.6-0.4,1.8-2,1.8c-2-0.1-3.8,0.5-4.9,2.3c-1,1.8-0.8,3.6,0.3,5.2
			c0.4,0.6,0.6,1.3,0.3,1.9c-1.8,4.6-4.7,7.9-9.6,9.1c-2.1,0.5-4.2,0.1-6.1-0.9c-4.7-2.4-7-6.3-7.1-11.5c0-0.9,0.4-1.8,0.7-2.7
			c0.1-0.4,0.4-0.4,0.9-0.3c2,0.4,4,0.8,6.1,1.1C55.1,23.5,56,23.5,56.8,23.5z"/>
		<path d="M90.2,15.9c1.9-0.8,3.3-2.2,4.6-3.7c1.7,1.5,2.3,3.5,2.5,5.7c0.4,5.5-3.5,9.9-9.6,10.1c-3.2,0.1-6.2-0.5-8.8-2.5
			c-1.2-0.9-2-2.1-1.7-3.8c0.8-4.3-0.5-8.4-1.4-12.6c-0.4-1.6-0.6-3.3-0.6-5c-0.1-2.5,1-3.7,3.5-4C83-0.4,89,1.8,91.5,5.7
			c1.6,2.4,1.6,4.9,0.4,7.4C91.4,14.1,90.8,14.9,90.2,15.9z"/>
		<path d="M70.6,44.8c-3.2,0-4.7-1.3-4.5-4.2c0.1-1.4,0.4-2.7,0.9-4c1.3-3.6,3.3-6.7,6.1-9.4c1.5-1.5,3-1.7,4.9-0.7
			c3.6,2.2,5.6,5.3,5.5,9.6c-0.1,2-1.1,3.7-2.7,4.9c-2.5,2.1-5.4,3-8.5,3.6C71.6,44.8,71,44.8,70.6,44.8z"/>
		<path d="M45.9,63.2c-3.2,0.3-6.2,0.5-9.4,0.8c2.5-4.3,5-8.6,7.6-13.1C44.7,55.1,45.3,59.2,45.9,63.2z"/>
		<path d="M109.5,73c-2.2,0-3.6-1.1-3.9-3c-0.6-4.4,2-10.6,6.8-12.3c1.4-0.5,2.8-0.6,4.3-0.2c0.4,0.1,0.7,0.3,0.6,0.7
			c-0.6,4.5-1.5,8.8-4.3,12.5C112.1,72.1,110.8,73,109.5,73z"/>
		<g>
			<path d="M77.9,26.5c-1.8-1.1-3.3-0.8-4.9,0.7c-2.8,2.7-4.8,5.8-6.1,9.4c-0.5,1.3-0.8,2.7-0.9,4c-0.1,2.9,1.3,4.3,4.5,4.2
				c0.4,0,1-0.1,1.6-0.2c3.1-0.6,6-1.5,8.5-3.6c1.5-1.3,2.6-2.9,2.7-4.9C83.6,31.8,81.5,28.7,77.9,26.5z"/>
			<path d="M90.2,15.9c0.6-1,1.2-1.8,1.6-2.7c1.2-2.5,1.2-5-0.4-7.4c-2.5-3.9-8.5-6.1-12.8-5.6c-2.4,0.3-3.5,1.6-3.5,4
				c0,1.7,0.2,3.4,0.6,5c1,4.1,2.3,8.2,1.4,12.6c-0.3,1.7,0.5,2.8,1.7,3.8c2.6,1.9,5.6,2.6,8.8,2.5c6.1-0.2,10-4.7,9.6-10.1
				c-0.1-2.1-0.7-4.1-2.5-5.7C93.5,13.7,92.1,15.1,90.2,15.9z"/>
			<path d="M69.2,26.7c-1.1-1.6-1.4-3.4-0.3-5.2c1.1-1.9,2.9-2.4,4.9-2.3c1.6,0.1,2-0.2,2-1.8c0-0.4,0-0.8,0-1.1
				c-0.6-4.5-2.3-8.5-5.5-11.7c-2.4-2.5-5.4-3.5-8.8-2.4C56.6,3.7,53.1,7,51,11.7c-1.6,3.7-0.9,6.9,1.8,9.3c1.2,1.1,2.8,1.8,4.2,2.7
				c-0.9-0.1-1.7-0.1-2.6-0.2c-2-0.3-4.1-0.7-6.1-1.1c-0.5-0.1-0.8-0.1-0.9,0.3c-0.3,0.9-0.7,1.8-0.7,2.7c0.1,5.2,2.5,9.1,7.1,11.5
				c1.9,1,4,1.4,6.1,0.9c5-1.2,7.9-4.6,9.6-9.1C69.7,27.9,69.6,27.3,69.2,26.7z"/>
			<path d="M138.8,22.8c-2.5,0-4.3,1.8-4.3,4.3s1.8,4.3,4.3,4.4c2.3,0,4.4-1.7,4.4-4.4C143.2,24.7,141.2,22.8,138.8,22.8z
				 M138.7,30.5c-1.8,0-3.2-1.5-3.2-3.4s1.4-3.3,3.3-3.3c1.8,0,3.2,1.5,3.2,3.3C142,29,140.6,30.5,138.7,30.5z"/>
			<path d="M140.6,25.5c-0.2-0.7-0.9-0.9-1.5-0.9c-0.4,0-0.8,0-1.2,0c-0.7,0-0.9,0.3-0.9,0.9c0,1,0,2.1,0,3.1c0,0.4,0,0.8,0.6,0.8
				s0.8-0.2,0.7-0.8c0-0.3,0-0.6,0-0.9c0.1,0,0.2-0.1,0.3-0.1c0.2,0.3,0.6,0.6,0.7,1c0.2,1,0.8,0.9,1.7,0.8c-0.3-0.7-0.6-1.4-1-2.1
				C140.6,26.7,140.8,26.2,140.6,25.5z M139.3,26.4c-0.3,0.2-0.6,0.2-1,0.4c0-0.5,0-0.8,0-1.2c0.4,0.1,0.7,0.2,0.9,0.3
				C139.3,25.9,139.4,26.3,139.3,26.4z"/>
		</g>
	</g>
</g>
</svg>
