<?xml version="1.0" encoding="utf-8"?>
<!-- Generator: Adobe Illustrator 25.0.1, SVG Export Plug-In . SVG Version: 6.00 Build 0)  -->
<svg version="1.1" id="Lager_1" xmlns="http://www.w3.org/2000/svg" xmlns:xlink="http://www.w3.org/1999/xlink" x="0px" y="0px"
	 viewBox="0 0 237 177" style="enable-background:new 0 0 237 177;" xml:space="preserve">
<g>
	<path d="M115.93,34.92c-0.24,0.48-0.48,0.97-0.73,1.46s-0.5,0.98-0.74,1.47c-0.24,0.49-0.46,0.95-0.66,1.38l5.65-2.85l-2.87-2.84
		C116.38,33.97,116.17,34.43,115.93,34.92z"/>
	<path d="M122.99,30.26c0.08,0.02,0.28,0.05,0.78,0.05c0.41,0.01,0.54-0.01,0.59-0.02c0-0.01,0.01-0.01,0.01-0.01
		c0.06-0.01,0.08-0.09,0.03-0.13l-1.2-0.99c-0.02-0.01-0.04-0.02-0.06-0.01c-0.12,0.03-0.15,0.04-0.15,0.04
		c-0.06,0.03-0.08,0.06-0.08,0.08c-0.02,0.06-0.04,0.18-0.04,0.41c0,0.33,0.04,0.48,0.08,0.54
		C122.96,30.24,122.98,30.25,122.99,30.26z"/>
	<path d="M131.31,19.7c-0.49,0.26-0.97,0.51-1.45,0.75s-0.94,0.47-1.37,0.67l2.87,2.84l2.79-5.69c-0.43,0.2-0.89,0.43-1.38,0.67
		C132.29,19.19,131.8,19.44,131.31,19.7z"/>
	<path d="M123.97,1c-15.34,0-27.76,12.43-27.76,27.76s12.43,27.76,27.76,27.76c15.33,0,27.76-12.43,27.76-27.76
		C151.74,13.43,139.31,1,123.97,1z M129.58,36.82l-17.41,7.81l-0.76,0.3c-0.09,0.01-0.2,0.02-0.34,0.01s-0.26-0.07-0.37-0.17
		l-2.39-2.36c-0.05-0.05-0.09-0.11-0.13-0.19c-0.03-0.08-0.06-0.16-0.07-0.25c-0.01-0.09-0.02-0.17-0.01-0.25
		c0.01-0.08,0.03-0.14,0.06-0.18l7.9-18.14c0.07-0.17,0.18-0.25,0.32-0.24c0.14,0.01,0.27,0.08,0.39,0.2l2.76,2.72
		c0.24,0.23,0.28,0.51,0.14,0.82c-0.2,0.43-0.39,0.87-0.58,1.3s-0.38,0.87-0.58,1.3l4.97,4.9c0.43-0.2,0.86-0.4,1.29-0.6
		s0.86-0.39,1.3-0.59c0.17-0.08,0.31-0.11,0.45-0.09c0.13,0.02,0.27,0.11,0.41,0.25l2.68,2.65c0.17,0.17,0.25,0.32,0.24,0.47
		C129.84,36.64,129.75,36.75,129.58,36.82z M122.39,28.4c-0.08-0.15-0.12-0.33-0.12-0.56c0-0.54,0.16-0.9,0.47-1.1
		c0.23-0.14,0.58-0.21,1.11-0.21c0.54,0,0.91,0.1,1.13,0.3c0.23,0.2,0.35,0.54,0.35,0.99c0,0.06-0.01,0.15-0.01,0.27l-0.01,0.15
		c-0.01,0.08-0.07,0.14-0.15,0.14h-0.75c-0.08,0-0.14-0.06-0.15-0.14v-0.15c-0.01-0.08-0.01-0.13-0.01-0.16
		c0-0.16-0.01-0.25-0.02-0.31c-0.01-0.03-0.03-0.05-0.06-0.06c-0.06-0.02-0.17-0.03-0.36-0.03c-0.36,0-0.45,0.03-0.45,0.03
		c-0.02,0.01-0.06,0.03-0.06,0.19c0,0.14,0.03,0.2,0.04,0.21c0,0.01,0.03,0.06,0.21,0.2l0.97,0.82c0.05,0.04,0.13,0.01,0.12-0.06
		c0-0.04,0.04-0.08,0.08-0.08h0.91c0.04,0,0.08,0.03,0.08,0.07v0.22c0.01,0.17,0.01,0.27,0.01,0.32c0,0.15-0.01,0.31-0.02,0.44
		c-0.01,0.03,0.01,0.05,0.02,0.06l0.77,0.62c0.03,0.03,0.04,0.07,0.01,0.1l-0.53,0.66c-0.03,0.03-0.08,0.04-0.11,0.01l-0.49-0.4
		c-0.03-0.03-0.07-0.02-0.1,0.01c-0.07,0.06-0.14,0.12-0.22,0.17c-0.26,0.14-0.65,0.2-1.25,0.2c-0.35,0-0.59-0.01-0.73-0.03
		c-0.34-0.03-0.6-0.12-0.8-0.26c-0.32-0.24-0.48-0.68-0.48-1.35c0-0.33,0.04-0.57,0.12-0.76c0.1-0.24,0.27-0.41,0.49-0.51
		L122.39,28.4z M139.83,15.79l-0.29,0.76l-7.6,17.51c-0.07,0.17-0.18,0.27-0.33,0.28c-0.15,0.01-0.3-0.07-0.47-0.23l-2.68-2.65
		c-0.14-0.14-0.23-0.28-0.25-0.41c-0.03-0.13,0-0.28,0.08-0.45c0.19-0.44,0.38-0.88,0.57-1.31s0.39-0.87,0.58-1.3l-4.96-4.9
		c-0.43,0.2-0.86,0.4-1.3,0.59c-0.43,0.19-0.86,0.39-1.3,0.59c-0.31,0.15-0.58,0.11-0.82-0.12l-2.76-2.72
		c-0.12-0.12-0.19-0.25-0.2-0.38c-0.02-0.14,0.06-0.25,0.24-0.32l18.06-8.14c0.04-0.03,0.1-0.05,0.18-0.06
		c0.08-0.01,0.16-0.01,0.25,0c0.09,0.01,0.17,0.03,0.25,0.07c0.08,0.03,0.14,0.07,0.19,0.12l2.39,2.36c0.1,0.1,0.16,0.23,0.17,0.37
		C139.84,15.59,139.84,15.7,139.83,15.79z"/>
</g>
<g>
	<path d="M11.62,120.8c0.84,0,1.4-0.41,1.69-1.23c0.42-1.13,0.84-2.25,1.28-3.36c0.43-1.12,0.86-2.24,1.28-3.36h17.59
		c0.42,1.13,0.84,2.25,1.26,3.36c0.42,1.12,0.85,2.24,1.29,3.36c0.15,0.44,0.37,0.76,0.65,0.94c0.28,0.19,0.67,0.28,1.18,0.28h9.51
		c0.6,0,1.02-0.14,1.26-0.41c0.24-0.28,0.28-0.63,0.1-1.08L31.3,74.45l-0.83-1.89c-0.13-0.18-0.33-0.38-0.6-0.61
		s-0.59-0.35-0.96-0.35h-8.48c-0.18,0-0.36,0.04-0.56,0.12c-0.2,0.08-0.39,0.18-0.56,0.31c-0.18,0.13-0.33,0.28-0.45,0.43
		s-0.19,0.3-0.22,0.43L0.66,119.47c-0.18,0.44-0.13,0.77,0.15,0.99s0.62,0.33,1.04,0.33h9.77V120.8z M20.85,98.58
		c0.43-1.29,0.86-2.6,1.28-3.93s0.84-2.64,1.28-3.94c0.43-1.3,0.86-2.52,1.28-3.64l5.07,15.14H19.57
		C19.99,101.09,20.42,99.88,20.85,98.58z"/>
	<path d="M39.29,73.09c2.85,7.51,5.69,14.95,8.52,22.33c2.83,7.38,5.67,14.82,8.52,22.33c0.15,0.4,0.33,0.8,0.53,1.19
		c0.2,0.4,0.41,0.78,0.63,1.16c0.22,0.46,0.68,0.7,1.39,0.7h8.02H67c0.33,0,0.62-0.1,0.88-0.3c0.25-0.2,0.48-0.45,0.68-0.75
		s0.37-0.62,0.51-0.96s0.27-0.67,0.38-0.98c0.73-2.01,1.46-3.98,2.19-5.91s1.47-3.9,2.22-5.91l5.24,13.78
		c0.11,0.31,0.29,0.56,0.55,0.75c0.25,0.19,0.62,0.28,1.11,0.28h8.02h0.1c0.44,0,0.82-0.15,1.13-0.45c0.31-0.3,0.51-0.57,0.6-0.81
		c1.48-3.87,3-7.74,4.56-11.61c1.56-3.88,3.13-7.75,4.7-11.61c1.58-3.87,3.15-7.73,4.72-11.6c1.57-3.87,3.1-7.74,4.61-11.63v-0.1
		c0.02-0.07,0.03-0.19,0.03-0.36c0-0.31-0.11-0.56-0.31-0.75c-0.21-0.19-0.57-0.28-1.08-0.28H97.37c-0.91,0-1.51,0.42-1.82,1.26
		l-10.73,30.15l-4.44-13.02l5.9-16.9v-0.1c0.02-0.07,0.03-0.19,0.03-0.36c0-0.31-0.11-0.56-0.31-0.75
		c-0.21-0.19-0.57-0.28-1.08-0.28H74.15c-0.91,0-1.51,0.42-1.82,1.26l-9.38,30.18L52.81,72.86c-0.31-0.84-0.88-1.26-1.72-1.26H40.42
		c-0.82,0-1.23,0.31-1.23,0.93c0,0.09,0.02,0.18,0.05,0.27C39.28,72.88,39.29,72.98,39.29,73.09z"/>
	<path d="M99.38,120.47c0.28,0.22,0.62,0.33,1.04,0.33h9.77c0.84,0,1.4-0.41,1.69-1.23c0.42-1.13,0.84-2.25,1.28-3.36
		c0.43-1.12,0.86-2.24,1.28-3.36h17.59c0.42,1.13,0.84,2.25,1.26,3.36c0.42,1.12,0.85,2.24,1.29,3.36c0.15,0.44,0.37,0.76,0.65,0.94
		c0.28,0.19,0.67,0.28,1.18,0.28h9.51c0.6,0,1.02-0.14,1.26-0.41c0.24-0.28,0.28-0.63,0.1-1.08l-17.39-44.86l-0.83-1.89
		c-0.13-0.18-0.33-0.38-0.6-0.61s-0.59-0.35-0.96-0.35h-8.48c-0.18,0-0.36,0.04-0.56,0.12s-0.39,0.18-0.56,0.31
		c-0.18,0.13-0.33,0.28-0.45,0.43c-0.12,0.15-0.19,0.3-0.22,0.43l-17.99,46.58C99.06,119.92,99.11,120.25,99.38,120.47z
		 M119.43,98.58c0.43-1.29,0.86-2.6,1.28-3.93s0.84-2.64,1.28-3.94c0.43-1.3,0.86-2.52,1.28-3.64l5.07,15.14h-10.17
		C118.57,101.09,119,99.88,119.43,98.58z"/>
	<path d="M162.66,120.8c1.06,0,1.59-0.49,1.59-1.46v-12.92l4.21-4.84c1.1,1.63,2.12,3.19,3.05,4.67c0.93,1.48,1.84,2.94,2.75,4.39
		s1.84,2.9,2.8,4.36s2.03,2.98,3.2,4.57c0.24,0.38,0.55,0.67,0.91,0.89s0.73,0.33,1.11,0.33h12.52c0.49,0,0.73-0.17,0.73-0.5
		c0-0.22-0.12-0.52-0.36-0.89l-17.26-25.98l15.61-20.58c0.24-0.31,0.36-0.57,0.36-0.8c0-0.33-0.27-0.5-0.8-0.5h-12.59
		c-0.38,0-0.76,0.12-1.14,0.35c-0.39,0.23-0.7,0.54-0.94,0.91c-2.39,3.09-4.74,6.14-7.06,9.14c-2.32,3-4.68,6.05-7.09,9.14V73.06
		c0-0.44-0.18-0.8-0.55-1.06c-0.36-0.27-0.71-0.4-1.04-0.4h-9.78c-0.46,0-0.82,0.14-1.07,0.43s-0.38,0.63-0.38,1.03v46.29
		c0,0.97,0.5,1.46,1.49,1.46L162.66,120.8L162.66,120.8z"/>
	<path d="M236.34,110.96c0-1.01-0.5-1.52-1.49-1.52h-22.26v-8.48h16.6c0.46,0,0.82-0.14,1.06-0.43c0.24-0.29,0.36-0.58,0.36-0.89
		v-7.16c0-0.46-0.14-0.8-0.41-0.99c-0.28-0.2-0.62-0.3-1.04-0.3h-16.57v-8.22h21.47c0.51,0,0.89-0.17,1.16-0.51
		c0.26-0.34,0.4-0.7,0.4-1.07V73.2c0-0.48-0.13-0.87-0.4-1.16c-0.26-0.29-0.64-0.43-1.13-0.43h-32.87c-0.46,0-0.82,0.14-1.07,0.41
		c-0.25,0.28-0.38,0.65-0.38,1.11v46.25c0,0.49,0.13,0.84,0.4,1.08c0.26,0.23,0.62,0.35,1.06,0.35h33.5c0.22,0,0.41-0.02,0.58-0.07
		c0.01,0,0.03-0.01,0.04-0.01c0.02-0.01,0.05-0.02,0.07-0.02c0.21-0.07,0.39-0.18,0.53-0.34c0.22-0.24,0.34-0.54,0.38-0.91
		c0.01-0.06,0.02-0.11,0.02-0.17L236.34,110.96L236.34,110.96z"/>
	<path d="M48.6,127.42c-0.24-0.28-0.66-0.41-1.26-0.41h-9.51c-0.51,0-0.9,0.09-1.18,0.28s-0.49,0.5-0.65,0.94
		c-0.44,1.13-0.87,2.25-1.29,3.36c-0.42,1.12-0.84,2.24-1.26,3.36H15.86c-0.42-1.13-0.84-2.25-1.28-3.36
		c-0.43-1.12-0.86-2.24-1.28-3.36c-0.29-0.82-0.85-1.23-1.69-1.23H1.85c-0.42,0-0.77,0.11-1.04,0.33c-0.28,0.22-0.33,0.55-0.15,0.99
		l17.99,46.58c0.02,0.13,0.09,0.28,0.22,0.43c0.12,0.15,0.27,0.3,0.45,0.43c0.18,0.13,0.36,0.24,0.56,0.31
		c0.2,0.08,0.39,0.12,0.56,0.12h8.48c0.38,0,0.7-0.12,0.96-0.35c0.26-0.23,0.46-0.44,0.6-0.61l0.83-1.89l17.39-44.86
		C48.87,128.05,48.84,127.69,48.6,127.42z M24.68,160.73c-0.42-1.13-0.84-2.34-1.28-3.64c-0.43-1.3-0.86-2.62-1.28-3.94
		c-0.42-1.33-0.84-2.63-1.28-3.93c-0.43-1.29-0.86-2.5-1.28-3.63h10.17L24.68,160.73z"/>
	<path d="M109.04,174.71c-1.5-3.89-3.04-7.76-4.61-11.63c-1.57-3.87-3.14-7.73-4.72-11.6c-1.58-3.87-3.15-7.74-4.7-11.61
		c-1.56-3.88-3.08-7.75-4.56-11.61c-0.09-0.24-0.29-0.51-0.6-0.81c-0.31-0.3-0.68-0.45-1.13-0.45h-0.1H80.6
		c-0.49,0-0.86,0.09-1.11,0.28s-0.44,0.44-0.55,0.75l-5.24,13.78c-0.75-2.01-1.49-3.98-2.22-5.91c-0.73-1.93-1.46-3.9-2.19-5.91
		c-0.11-0.31-0.24-0.64-0.38-0.98s-0.31-0.66-0.51-0.96c-0.2-0.3-0.43-0.55-0.68-0.75s-0.55-0.3-0.88-0.3h-0.1h-8.02
		c-0.71,0-1.17,0.23-1.39,0.7c-0.22,0.38-0.43,0.76-0.63,1.16c-0.2,0.4-0.38,0.8-0.53,1.19c-2.85,7.51-5.69,14.95-8.52,22.33
		c-2.83,7.38-5.67,14.82-8.52,22.33c0,0.11-0.02,0.21-0.05,0.3s-0.05,0.18-0.05,0.27c0,0.62,0.41,0.93,1.23,0.93h10.67
		c0.84,0,1.41-0.42,1.72-1.26l10.14-30.18l9.38,30.18c0.31,0.84,0.92,1.26,1.82,1.26h10.77c0.51,0,0.87-0.09,1.08-0.28
		s0.31-0.44,0.31-0.75c0-0.18-0.01-0.3-0.03-0.36v-0.1l-5.9-16.9l4.44-13.02l10.73,30.15c0.31,0.84,0.92,1.26,1.82,1.26h10.44
		c0.51,0,0.87-0.09,1.08-0.28s0.31-0.44,0.31-0.75c0-0.18-0.01-0.3-0.03-0.36v-0.11H109.04z"/>
	<path d="M146.59,127h-9.51c-0.51,0-0.9,0.09-1.18,0.28s-0.49,0.5-0.65,0.94c-0.44,1.13-0.87,2.25-1.29,3.36
		c-0.42,1.12-0.84,2.24-1.26,3.36h-17.59c-0.42-1.13-0.84-2.25-1.28-3.36c-0.43-1.12-0.86-2.24-1.28-3.36
		c-0.29-0.82-0.85-1.23-1.69-1.23h-9.77c-0.42,0-0.77,0.11-1.04,0.33c-0.28,0.22-0.33,0.55-0.15,0.99l17.99,46.58
		c0.02,0.13,0.09,0.28,0.22,0.43c0.12,0.15,0.27,0.3,0.45,0.43c0.18,0.13,0.36,0.24,0.56,0.31c0.2,0.08,0.39,0.12,0.56,0.12h8.48
		c0.38,0,0.7-0.12,0.96-0.35c0.26-0.23,0.46-0.44,0.6-0.61l0.83-1.89l17.39-44.86c0.18-0.44,0.14-0.8-0.1-1.08
		C147.6,127.14,147.18,127,146.59,127z M123.92,160.73c-0.42-1.13-0.84-2.34-1.28-3.64c-0.43-1.3-0.86-2.62-1.28-3.94
		c-0.42-1.33-0.84-2.63-1.28-3.93c-0.43-1.29-0.86-2.5-1.28-3.63h10.17L123.92,160.73z"/>
	<path d="M195.2,127.28c-0.25-0.19-0.59-0.28-1.02-0.28h-12.26c-0.41,0-0.78,0.1-1.09,0.33c-0.3,0.22-0.3,0.37-0.63,0.89
		l-8.69,15.14h-5.79v-14.94c0-0.95-0.55-1.42-1.64-1.42h-10.62c-0.48,0-0.86,0.12-1.14,0.35c-0.29,0.23-0.43,0.59-0.43,1.08v46.25
		c0,0.46,0.13,0.83,0.39,1.11s0.66,0.41,1.18,0.41h23.1c2.45,0,4.76-0.43,6.9-1.28c2.15-0.85,4.02-2,5.61-3.46
		c1.6-1.46,2.85-3.16,3.77-5.12c0.92-1.95,1.38-4.04,1.38-6.25c0-1.5-0.22-2.93-0.66-4.29s-1.05-2.63-1.84-3.81
		s-1.72-2.25-2.81-3.21s-2.27-1.78-3.56-2.47l9.19-16.04c0.17-0.31,0.38-0.67,0.64-1.09s0.39-0.78,0.39-1.09
		C195.57,127.74,195.45,127.47,195.2,127.28z M179.48,161.96c-0.26,0.66-0.63,1.27-1.11,1.82s-1.05,1.02-1.72,1.39
		c-0.67,0.38-1.41,0.62-2.22,0.73c-0.67,0.04-1.29,0.08-1.88,0.12c-0.58,0.03-1.22,0.05-1.91,0.05h-4.93v-12.16h6.58
		c0.43,0,0.81,0.01,1.14,0.03s0.7,0.05,1.11,0.1c0.83,0.09,1.59,0.31,2.25,0.68c0.67,0.36,1.23,0.82,1.68,1.36s0.8,1.15,1.04,1.82
		c0.24,0.67,0.36,1.36,0.36,2.07C179.88,160.63,179.75,161.29,179.48,161.96z"/>
	<path d="M117.39,124.04c-0.2,0.51-0.31,1.18-0.31,2.05c0,1.79,0.43,2.97,1.28,3.62c0.51,0.38,1.21,0.62,2.14,0.7
		c0.38,0.05,1.03,0.07,1.96,0.07c1.61,0,2.67-0.17,3.35-0.55c0.22-0.12,0.41-0.27,0.6-0.44c0.07-0.07,0.19-0.09,0.26-0.02l1.32,1.08
		c0.09,0.07,0.22,0.05,0.29-0.03l1.42-1.78c0.07-0.09,0.05-0.2-0.03-0.27l-1.98-1.66c-0.05-0.03-0.09-0.1-0.07-0.17
		c0.03-0.36,0.05-0.77,0.05-1.18c0-0.14,0-0.43-0.02-0.87V124c0-0.1-0.1-0.19-0.21-0.19h-2.43c-0.1,0-0.21,0.09-0.21,0.21
		c0.02,0.17-0.19,0.26-0.32,0.15l-2.61-2.19c-0.48-0.39-0.56-0.53-0.56-0.55c-0.03-0.03-0.1-0.19-0.1-0.56c0-0.44,0.1-0.5,0.15-0.51
		c0,0,0.24-0.09,1.2-0.09c0.51,0,0.82,0.03,0.97,0.09c0.09,0.02,0.14,0.07,0.15,0.15c0.02,0.15,0.05,0.41,0.05,0.84
		c0,0.07,0,0.21,0.02,0.43v0.39c0.02,0.21,0.17,0.38,0.39,0.38h2.02c0.21,0,0.38-0.17,0.39-0.38l0.02-0.39
		c0-0.31,0.02-0.56,0.02-0.72c0-1.21-0.32-2.1-0.94-2.65c-0.6-0.55-1.59-0.8-3.04-0.8c-1.42,0-2.36,0.19-2.97,0.56
		c-0.84,0.55-1.26,1.52-1.26,2.96c0,0.62,0.1,1.11,0.32,1.5c0,0.02,0.02,0.03,0.02,0.03C118.11,122.94,117.65,123.4,117.39,124.04z
		 M120.04,125.01c0.02-0.07,0.07-0.15,0.22-0.22c0.02-0.02,0.09-0.03,0.41-0.12c0.07-0.02,0.12,0,0.17,0.03l3.23,2.67
		c0.12,0.1,0.07,0.31-0.09,0.34c-0.02,0-0.03,0-0.03,0.02c-0.12,0.02-0.48,0.07-1.61,0.07c-1.33,0-1.88-0.09-2.08-0.14
		c-0.05-0.02-0.1-0.05-0.12-0.1c-0.09-0.15-0.2-0.55-0.2-1.44C119.94,125.49,119.99,125.16,120.04,125.01z"/>
	<path d="M236.34,136.92c0,1.01-0.5,1.52-1.49,1.52h-22.26v8.48h16.6c0.46,0,0.82,0.14,1.06,0.43c0.24,0.29,0.36,0.58,0.36,0.89
		v7.16c0,0.46-0.14,0.8-0.41,0.99c-0.28,0.2-0.62,0.3-1.04,0.3h-16.57v8.22h21.47c0.51,0,0.89,0.17,1.16,0.51
		c0.26,0.34,0.4,0.7,0.4,1.07v8.19c0,0.48-0.13,0.87-0.4,1.16c-0.26,0.29-0.64,0.43-1.13,0.43h-32.87c-0.46,0-0.82-0.14-1.07-0.41
		c-0.25-0.28-0.38-0.65-0.38-1.11V128.5c0-0.49,0.13-0.84,0.4-1.08c0.26-0.23,0.62-0.35,1.06-0.35h33.5c0.22,0,0.41,0.02,0.58,0.07
		c0.01,0,0.03,0.01,0.04,0.01c0.02,0.01,0.05,0.02,0.07,0.02c0.21,0.07,0.39,0.18,0.53,0.34c0.22,0.24,0.34,0.54,0.38,0.91
		c0.01,0.06,0.02,0.11,0.02,0.17L236.34,136.92L236.34,136.92z"/>
</g>
</svg>
