<?xml version="1.0" encoding="utf-8"?>
<!-- Generator: Adobe Illustrator 23.0.1, SVG Export Plug-In . SVG Version: 6.00 Build 0)  -->
<svg version="1.1" id="Lager_1" xmlns="http://www.w3.org/2000/svg" xmlns:xlink="http://www.w3.org/1999/xlink" x="0px" y="0px"
	 viewBox="0 0 195.1 46.7" style="enable-background:new 0 0 195.1 46.7;" xml:space="preserve">
<title>aways</title>
<polygon points="108.4,0 89.6,45.9 95.8,45.9 110.6,6.6 125.9,45.9 132.1,45.9 113.3,0 "/>
<polygon points="18.8,0 0,45.9 6.2,45.9 21,6.6 36.3,45.9 42.5,45.9 23.7,0 "/>
<polygon points="91,0 76.3,39.3 70.2,23.6 79.8,0 73.6,0 67.4,16.6 61,0 54.7,0 64.6,24.1 58.9,39.3 43.5,0 37.3,0 56.1,45.9 
	61,45.9 67.3,30.7 73.5,45.9 78.4,45.9 97.3,0 "/>
<polygon points="155.7,0 141.7,23.9 127.8,0 121.3,0 138.8,29 138.8,45.9 144.6,45.9 144.6,29.2 162,0 "/>
<path d="M190.3,10c-0.6-0.7-1.3-1.3-2.1-1.7c-0.9-0.6-1.9-1.1-2.9-1.5c-1.1-0.5-2.3-0.8-3.5-1.1c-1.3-0.3-2.7-0.4-4-0.4
	c-3.6,0-6.2,0.7-7.9,2c-1.7,1.3-2.6,3.4-2.5,5.5c0,1.1,0.2,2.2,0.7,3.1c0.5,0.9,1.3,1.6,2.2,2.1c1.2,0.7,2.5,1.2,3.8,1.5
	c1.5,0.4,3.3,0.9,5.4,1.4c2.2,0.5,4.4,1,6.5,1.7c1.7,0.6,3.4,1.4,4.9,2.5c1.3,0.9,2.4,2.2,3.1,3.7c0.8,1.6,1.1,3.4,1.1,5.2
	c0.1,2-0.4,4-1.3,5.7c-0.8,1.6-2,3-3.5,4c-1.6,1.1-3.4,1.9-5.3,2.4c-2.2,0.5-4.4,0.8-6.6,0.7c-3.4,0-6.8-0.5-10.1-1.7
	c-3.1-1.1-6.1-2.7-8.6-4.8l2.8-4.9c0.8,0.8,1.7,1.6,2.7,2.2c1.2,0.8,2.4,1.5,3.8,2c1.5,0.6,3,1.1,4.5,1.4c1.7,0.4,3.4,0.6,5.1,0.5
	c3.3,0,5.8-0.6,7.6-1.8c1.8-1.1,2.8-3.1,2.7-5.2c0-1.2-0.3-2.3-0.9-3.3c-0.7-1-1.5-1.7-2.6-2.3c-1.3-0.7-2.7-1.3-4.2-1.7
	c-1.7-0.5-3.5-1-5.7-1.5c-2.1-0.5-4.1-1.1-6.1-1.8c-1.6-0.6-3.1-1.4-4.5-2.4c-1.2-0.9-2.1-2-2.7-3.3c-0.6-1.5-0.9-3.1-0.9-4.6
	c0-2,0.4-4,1.2-5.8c0.8-1.7,2-3.1,3.4-4.3c1.6-1.2,3.3-2.1,5.3-2.6c2.1-0.6,4.4-0.9,6.6-0.9c2.9,0,5.7,0.4,8.4,1.4
	c2.4,0.9,4.7,2.2,6.7,3.8L190.3,10z"/>
</svg>
