<svg id="Lager_1" data-name="Lager 1" xmlns="http://www.w3.org/2000/svg" viewBox="0 0 195.06 46.71"><title>aways</title><polygon points="108.41 0 89.58 45.94 95.79 45.94 110.55 6.59 125.88 45.94 132.09 45.94 113.33 0 108.41 0"/><polygon points="18.83 0 0 45.94 6.21 45.94 20.97 6.59 36.3 45.94 42.51 45.94 23.74 0 18.83 0"/><polygon points="91.04 0 76.28 39.34 70.15 23.62 79.83 0 73.62 0 67.41 16.56 60.95 0 54.74 0 64.58 24.09 58.86 39.34 43.54 0 37.33 0 56.09 45.94 61.01 45.94 67.27 30.66 73.51 45.94 78.42 45.94 97.25 0 91.04 0"/><polygon points="155.71 0 141.66 23.94 127.75 0 121.35 0 138.75 29.05 138.75 45.94 144.58 45.94 144.58 29.18 162.04 0 155.71 0"/><path d="M190.27,10a9.78,9.78,0,0,0-2.07-1.74,18,18,0,0,0-2.91-1.52,20,20,0,0,0-3.53-1.1,18.46,18.46,0,0,0-4-.42q-5.37,0-7.86,2a6.68,6.68,0,0,0-2.49,5.5,6.2,6.2,0,0,0,.71,3.11,5.86,5.86,0,0,0,2.24,2.1,17,17,0,0,0,3.78,1.52q2.26.64,5.37,1.36A56.21,56.21,0,0,1,186,22.55,18.66,18.66,0,0,1,190.88,25,10,10,0,0,1,194,28.66a11.65,11.65,0,0,1,1.07,5.24,11.94,11.94,0,0,1-1.3,5.73,11.5,11.5,0,0,1-3.52,4A15.32,15.32,0,0,1,185,46a27.94,27.94,0,0,1-6.59.74,30.45,30.45,0,0,1-10.06-1.65,27.91,27.91,0,0,1-8.64-4.82l2.78-4.92a14.94,14.94,0,0,0,2.68,2.2,22.11,22.11,0,0,0,3.76,2,27.28,27.28,0,0,0,4.53,1.42,22.67,22.67,0,0,0,5.08.55c3.27,0,5.82-.58,7.63-1.75a5.81,5.81,0,0,0,2.72-5.24,5.73,5.73,0,0,0-.88-3.26,7.36,7.36,0,0,0-2.55-2.3,19,19,0,0,0-4.18-1.71c-1.66-.5-3.54-1-5.66-1.53a53.58,53.58,0,0,1-6.14-1.81A16.3,16.3,0,0,1,165,21.54a8.64,8.64,0,0,1-2.69-3.3,11,11,0,0,1-.9-4.65,13.19,13.19,0,0,1,1.22-5.83,12.37,12.37,0,0,1,3.43-4.27A15.09,15.09,0,0,1,171.31.87a23.94,23.94,0,0,1,6.6-.87,23.51,23.51,0,0,1,8.41,1.42A23.77,23.77,0,0,1,193,5.24Z"/></svg>