<?xml version="1.0" encoding="utf-8"?>
<!-- Generator: Adobe Illustrator 23.0.1, SVG Export Plug-In . SVG Version: 6.00 Build 0)  -->
<svg version="1.1" id="Lager_1" xmlns="http://www.w3.org/2000/svg" xmlns:xlink="http://www.w3.org/1999/xlink" x="0px" y="0px"
	 viewBox="0 0 841.9 595.3" style="enable-background:new 0 0 841.9 595.3;" xml:space="preserve">
<g>
	<path d="M418.8,299.6c-0.2,0.3-0.4,0.5-0.6,0.8c-1,1.1-2.2,1.7-3.6,2c-2,0.4-4,0.3-5.9-0.4c-0.3-0.1-0.7-0.3-1-0.5
		c-0.1,0-0.3-0.1-0.4,0c-1.8,0.9-3.8,1.2-5.8,1.1c-1.7-0.1-3.2-0.5-4.6-1.6c-1.4-1.1-2.1-2.5-2.1-4.3c0-1.2,0.2-2.4,0.9-3.5
		c0.8-1.2,1.9-2,3.2-2.4c2.1-0.7,4.2-0.7,6.3,0c0.3,0.1,0.7,0.3,1,0.4c-0.1,0.1-0.1,0.2-0.2,0.2c-0.6,0.5-1.1,1.2-1.4,1.9
		c-0.1,0.2-0.2,0.2-0.4,0.2c-1-0.2-2-0.3-3,0.1c-1.1,0.4-1.7,1.2-1.8,2.4c-0.3,1.9,1.1,3.3,2.8,3.6c1,0.2,2,0,2.9-0.3
		c0.3-0.1,0.3-0.1,0.2-0.5c-0.6-1.7-0.6-3.4,0.2-5.1c0.6-1.2,1.7-2.1,2.9-2.6c1.6-0.7,3.2-0.8,4.9-0.7c1.5,0.1,2.9,0.6,4.1,1.5
		c0.4,0.3,0.8,0.8,1.1,1.2c0.1,0.1,0.1,0.1,0.2,0.2c0.1,0,0.1-0.1,0.1-0.1c1-1.5,2.6-2.4,4.3-2.7c1.8-0.4,3.6-0.3,5.4,0.3
		c1.6,0.6,2.9,1.6,3.7,3.3c0.1-0.1,0.1-0.1,0.1-0.2c0.8-1.7,2.2-2.7,4-3.2c1.9-0.6,3.9-0.6,5.8,0c1.9,0.6,3.4,1.7,4.1,3.6
		c0.8,2.2,0.5,4.2-1,6c-0.8,1-1.9,1.5-3.1,1.9c-1.8,0.5-3.6,0.5-5.4,0.1c-0.1,0-0.1,0-0.2,0c0,0,0,0-0.1,0c0,0.1,0,0.2,0,0.3
		c0,0.9,0,1.8,0,2.8c0,0.4,0,0.4-0.4,0.4c-1.3,0-2.5,0-3.8,0c-0.3,0-0.4-0.1-0.4-0.4c0-1.8,0-3.6,0-5.3c0-0.1,0-0.2,0-0.4
		c-0.1,0.2-0.2,0.3-0.3,0.4c-0.9,1.2-2.1,1.9-3.5,2.2c-2.1,0.6-4.3,0.5-6.3-0.3c-1.2-0.5-2.1-1.2-2.8-2.2
		C419,299.7,418.9,299.7,418.8,299.6z M428.2,296.5c0-0.1,0-0.2,0-0.4c-0.1-1.4-0.8-2.8-2.6-2.9c-1.2-0.1-2.3,0.4-2.8,1.7
		c-0.3,0.8-0.3,1.6-0.2,2.5c0.1,0.8,0.5,1.5,1.1,1.9c0.7,0.5,1.5,0.5,2.3,0.4c0.7-0.1,1.3-0.5,1.6-1.1
		C428.1,297.9,428.2,297.3,428.2,296.5z M439.3,299.8c1.4,0,2.3-0.7,2.7-2c0.2-0.9,0.2-1.8-0.1-2.7c-0.3-0.9-1-1.5-1.9-1.7
		c-0.4-0.1-0.7-0.1-1.1,0c-0.8,0.1-1.5,0.5-1.9,1.3c-0.4,0.8-0.5,1.7-0.4,2.6C436.7,298.8,437.8,299.8,439.3,299.8z M415.1,296.5
		c0-0.1,0-0.3,0-0.4c0-0.6-0.2-1.1-0.4-1.6c-0.5-0.9-1.3-1.3-2.3-1.3c-1.1,0-2,0.4-2.5,1.5c-0.3,0.7-0.4,1.5-0.3,2.3
		c0.1,0.7,0.3,1.3,0.7,1.8c0.7,0.8,1.6,1,2.7,0.8c0.6-0.1,1.1-0.4,1.5-0.8C414.9,298.2,415.1,297.4,415.1,296.5z"/>
</g>
</svg>
