<?xml version="1.0" encoding="utf-8"?>
<!-- Generator: Adobe Illustrator 23.0.1, SVG Export Plug-In . SVG Version: 6.00 Build 0)  -->
<svg version="1.1" id="Lager_1" xmlns="http://www.w3.org/2000/svg" xmlns:xlink="http://www.w3.org/1999/xlink" x="0px" y="0px"
	 viewBox="0 0 195.5 58" style="enable-background:new 0 0 195.5 58;" xml:space="preserve">
<style type="text/css">
	.st0{fill:#1D1D1B;}
</style>
<g>
	<path class="st0" d="M90.6,34.9c-0.9,1.1-1.6,2-2.4,2.9c-3.7,4-8.4,6.4-13.7,7.5c-7.5,1.6-14.9,1.3-22.1-1.5
		c-1.3-0.5-2.5-1.3-3.8-1.8c-0.4-0.2-1.1-0.3-1.5-0.1c-6.9,3.5-14.2,4.7-21.8,4.3C19,45.9,13.1,44.3,8,40.3c-5.2-4.1-7.8-9.5-8-16.1
		c-0.2-4.7,0.7-9,3.3-13C6.2,6.6,10.4,3.7,15.5,2c7.9-2.6,15.8-2.8,23.7-0.1c1.3,0.4,2.5,1,3.9,1.6c-0.3,0.4-0.5,0.7-0.7,0.9
		c-2.2,2-4,4.4-5.4,7.1c-0.4,0.7-0.7,0.8-1.5,0.6c-3.8-0.9-7.6-1.1-11.4,0.4c-4,1.6-6.2,4.7-6.9,8.9c-1.2,7.1,4,12.3,10.7,13.3
		c3.8,0.6,7.5,0,11.1-1.2c1.3-0.5,1.3-0.5,0.8-1.8c-2.4-6.5-2.2-12.9,0.9-19c2.4-4.7,6.2-7.8,11-9.9c5.9-2.6,12.2-3.1,18.5-2.5
		c5.7,0.5,10.9,2.2,15.4,5.8c1.6,1.3,2.9,3,4.3,4.5c0.2,0.2,0.4,0.5,0.6,0.9c0.2-0.2,0.4-0.3,0.5-0.4c3.9-5.8,9.6-8.9,16.3-10.2
		c6.8-1.4,13.6-1.2,20.3,1.2c6.2,2.2,10.9,6.1,13.8,12.3c0.2-0.3,0.4-0.5,0.5-0.7c3.1-6.4,8.3-10.2,15-12.1
		c7.2-2.1,14.6-2.1,21.8,0.1c7.1,2.1,12.7,6.2,15.2,13.4c2.8,8.1,2,15.9-3.9,22.6c-3.1,3.6-7.2,5.7-11.6,7.1c-6.7,2-13.5,2-20.2,0.4
		c-0.3-0.1-0.5-0.1-0.8-0.2c-0.1,0-0.1,0-0.3,0.1c0,0.4-0.1,0.8-0.1,1.2c0,3.4,0,6.9,0,10.3c0,1.3,0,1.4-1.4,1.4
		c-4.8,0-9.6,0-14.3,0c-1,0-1.3-0.4-1.3-1.4c0-6.7,0-13.4,0-20.1c0-0.4,0-0.8,0-1.5c-0.5,0.6-0.8,1.1-1.1,1.5
		c-3.4,4.3-7.9,7-13.1,8.4c-8,2.2-16,2-23.8-1.1c-4.3-1.7-8-4.4-10.7-8.3C90.9,35.4,90.8,35.2,90.6,34.9z M125.7,23.3
		c0-0.4,0-0.9,0-1.3c-0.2-5.3-3-10.6-9.6-11c-4.6-0.3-8.6,1.6-10.5,6.3c-1.1,3-1.3,6.1-0.7,9.3c0.5,2.9,1.8,5.5,4.3,7.2
		c2.6,1.8,5.6,2,8.5,1.4c2.6-0.5,4.7-1.9,6.1-4.2C125.3,28.6,125.8,26,125.7,23.3z M167.5,35.4c5.2,0,8.7-2.7,10-7.7
		c0.9-3.5,0.8-6.9-0.4-10.3c-1.2-3.4-3.6-5.6-7.2-6.3c-1.3-0.2-2.8-0.2-4.2-0.1c-3.2,0.3-5.6,1.9-7.1,4.7c-1.7,3.1-2,6.5-1.6,9.9
		C157.8,31.8,161.7,35.4,167.5,35.4z M76.4,23.3c0-0.5,0-1.1,0-1.6c-0.1-2.1-0.6-4.1-1.7-6c-1.9-3.3-4.9-4.8-8.6-4.8
		c-4.2,0-7.6,1.5-9.5,5.8c-1.2,2.7-1.5,5.6-1.2,8.5c0.3,2.6,1,5,2.7,6.9c2.7,3.1,6.2,3.6,10,3.1c2.2-0.3,4.1-1.3,5.5-3.1
		C75.8,29.6,76.4,26.5,76.4,23.3z"/>
</g>
</svg>
