<?xml version="1.0" encoding="utf-8"?>
<!-- Generator: Adobe Illustrator 25.0.1, SVG Export Plug-In . SVG Version: 6.00 Build 0)  -->
<svg version="1.1" id="Lager_1" xmlns="http://www.w3.org/2000/svg" xmlns:xlink="http://www.w3.org/1999/xlink" x="0px" y="0px"
	 viewBox="0 0 237 177" style="enable-background:new 0 0 237 177;" xml:space="preserve">
<g>
	<g>
		<path d="M201.11,52.64c0.81,0.12,1.62,0.23,2.43,0.37c1.43,0.26,2.82,0.67,4.13,1.32c0.63,0.31,0.83,0.7,0.67,1.38
			c-0.61,2.61-1.89,4.86-3.77,6.76c-0.33,0.33-0.71,0.39-1.14,0.23c-1.28-0.49-2.6-0.65-3.96-0.64c-1.69,0.01-2.36,0.59-2.59,2.25
			c-0.08,0.64-0.16,1.27-0.26,1.91c-0.05,0.3,0.05,0.37,0.33,0.37c1.48-0.01,2.97-0.01,4.45,0c0.84,0,1.17,0.26,1.28,1.1
			c0.21,1.5,0.03,2.99-0.25,4.47c-0.17,0.87-0.41,1.72-0.76,2.54c-0.24,0.56-0.63,0.82-1.25,0.81c-1.58-0.01-3.15,0.01-4.73-0.01
			c-0.32,0-0.42,0.11-0.46,0.4c-0.4,2.95-0.8,5.9-1.21,8.86c-0.35,2.54-0.71,5.08-1.07,7.63c-0.35,2.5-0.69,4.99-1.04,7.49
			c-0.09,0.64-0.33,0.93-0.95,1.07c-2.3,0.51-4.64,0.56-6.98,0.41c-0.93-0.06-1.86-0.17-2.76-0.4c-0.78-0.2-1.06-0.63-0.95-1.41
			c0.52-3.71,1.03-7.42,1.55-11.12c0.51-3.63,1.02-7.26,1.53-10.89c0.13-0.95,0.26-1.91,0.4-2.96c-0.66,0.54-1.31,0.94-2.02,1.24
			c-0.99,0.43-2.01,0.73-3.07,0.9c-0.27,0.05-0.48,0.09-0.42,0.47c0.3,2.13,0.23,4.27-0.02,6.41c-0.31,2.66-0.8,5.29-1.72,7.82
			c-0.84,2.31-1.99,4.44-3.72,6.21c-2.07,2.11-4.61,3.35-7.48,3.93c-3.3,0.67-6.62,0.79-9.91-0.06c-4.74-1.22-7.62-4.32-8.82-9.02
			c-0.68-2.67-0.69-5.39-0.42-8.11c0.28-2.78,0.82-5.5,1.78-8.13c0.83-2.27,1.98-4.34,3.69-6.07c1.91-1.94,4.22-3.17,6.86-3.78
			c3.84-0.89,7.69-1.01,11.51,0.13c0.94,0.28,1.8,0.76,2.68,1.18c3.73,1.78,7.34,1.55,10.77-0.79c1.23-0.84,1.79-2.09,1.99-3.57
			c0.29-2.23,1.01-4.31,2.38-6.13c1.61-2.13,3.81-3.35,6.36-3.99c0.98-0.25,1.97-0.42,2.98-0.48c0.1-0.01,0.22,0.02,0.3-0.08
			C198.66,52.64,199.88,52.64,201.11,52.64z M167.21,79.7c0-0.34,0.02-0.67,0-1.01c-0.04-0.56-0.1-1.12-0.24-1.68
			c-0.34-1.4-1.09-2.44-2.91-2.55c-1.81-0.11-3.27,0.45-4.29,2c-0.52,0.79-0.89,1.64-1.18,2.53c-0.72,2.25-1.08,4.58-1.29,6.92
			c-0.14,1.51-0.2,3.02,0.09,4.53c0.17,0.88,0.43,1.73,1.18,2.31c1.2,0.94,3.63,0.85,4.96-0.18c1.02-0.79,1.6-1.88,2.03-3.05
			C166.72,86.35,167.06,83.04,167.21,79.7z"/>
		<path d="M2.17,106.93c0.22-0.85,0.36-1.72,0.71-2.54c0.93-2.14,2.49-3.72,4.39-5c0.4-0.27,0.53-0.45,0.33-0.97
			c-0.79-2.08-0.46-4.12,0.39-6.1c0.52-1.2,1.25-2.28,2.14-3.24c0.25-0.27,0.22-0.37-0.07-0.57c-2.62-1.83-3.92-4.41-4.23-7.54
			c-0.28-2.81,0.07-5.54,1.3-8.09c1.68-3.49,4.58-5.48,8.24-6.46c3.32-0.88,6.65-0.84,9.99-0.15c1.03,0.21,2.07,0.44,3.13,0.28
			c1.34-0.2,1.97-0.92,2.03-2.29c0.02-0.49,0.06-0.97,0.26-1.44c0.52-1.24,1.59-1.67,2.79-1.88c1.45-0.26,2.87-0.07,4.21,0.53
			c1.86,0.83,2.59,2.37,2.15,4.39c-0.5,2.32-2.03,3.65-4.17,4.42c-0.91,0.33-1.86,0.48-2.88,0.57c0.33,0.6,0.68,1.15,0.93,1.75
			c0.82,1.94,0.92,3.99,0.79,6.04C34.52,80.67,34,82.62,33,84.41c-1.7,3.05-4.37,4.84-7.66,5.79c-2.15,0.62-4.35,0.81-6.58,0.74
			c-0.37-0.01-0.68-0.02-0.79,0.45c-0.17,0.68-0.12,1.03,0.33,1.29c0.68,0.39,1.43,0.52,2.19,0.64c2.15,0.36,4.34,0.5,6.49,0.93
			c2.3,0.46,4.51,1.1,6.37,2.63c1.6,1.32,2.51,3.04,2.78,5.06c0.48,3.49-0.27,6.66-2.62,9.37c-1.68,1.93-3.81,3.18-6.18,4.07
			c-2.48,0.93-5.07,1.37-7.7,1.55c-0.12,0.01-0.28-0.07-0.37,0.09c-1.41,0-2.82,0-4.22,0c-0.44-0.18-0.92-0.13-1.38-0.18
			c-2.2-0.21-4.36-0.59-6.4-1.48c-1.93-0.85-3.51-2.09-4.43-4.06c-0.34-0.73-0.48-1.51-0.66-2.28
			C2.17,108.34,2.17,107.63,2.17,106.93z M18,109.13c0.31,0,0.61,0.01,0.92,0c1.58-0.08,3.14-0.26,4.6-0.92
			c0.87-0.4,1.6-0.96,1.92-1.92c0.31-0.94,0.06-1.61-0.8-2.09c-0.24-0.13-0.5-0.24-0.75-0.33c-0.78-0.27-1.6-0.41-2.41-0.53
			c-2.34-0.35-4.71-0.48-7.03-1c-0.2-0.05-0.37-0.04-0.52,0.16c-0.49,0.65-0.91,1.34-1.14,2.13c-0.64,2.18,0.21,3.66,2.4,4.23
			C16.11,109.12,17.05,109.16,18,109.13z M24.03,77.5c0.02-0.46-0.01-0.92-0.1-1.37c-0.17-0.97-0.49-1.87-1.4-2.42
			c-1.78-1.07-4.4-0.36-5.3,1.51c-0.94,1.96-1.07,4.03-0.54,6.13c0.22,0.87,0.75,1.54,1.62,1.87c1.57,0.59,4.09,0.36,5.07-2.09
			C23.86,79.97,24,78.75,24.03,77.5z"/>
		<path d="M209.1,117.03c-0.64-0.21-1.31-0.17-1.96-0.27c-2.48-0.37-4.88-1-7.09-2.23c-0.87-0.48-0.99-0.75-0.78-1.71
			c0.51-2.34,1.52-4.41,3.27-6.09c0.6-0.58,0.88-0.63,1.64-0.31c2.44,1.03,4.99,1.39,7.62,1.19c0.56-0.04,1.13-0.08,1.68-0.19
			c1.72-0.34,2.91-1.34,3.71-2.87c0.58-1.1,0.94-2.29,1.24-3.49c0.03-0.11,0.1-0.26,0-0.35c-0.11-0.09-0.23,0.03-0.33,0.08
			c-3.04,1.34-6.2,1.61-9.42,0.9c-3.58-0.8-5.88-3.33-6.48-6.95c-0.33-1.99-0.16-3.96,0.13-5.93c0.4-2.72,0.78-5.45,1.16-8.17
			c0.36-2.53,0.72-5.05,1.07-7.58c0.25-1.74,0.48-3.48,0.74-5.22c0.1-0.67,0.36-0.91,1.02-1.05c1.23-0.27,2.48-0.4,3.73-0.44
			c1.94-0.06,3.88-0.02,5.79,0.43c0.96,0.22,1.19,0.54,1.06,1.53c-0.41,2.97-0.83,5.93-1.25,8.9c-0.38,2.74-0.77,5.48-1.15,8.22
			c-0.22,1.57-0.44,3.15-0.66,4.72c-0.21,1.5,0.36,2.22,1.88,2.35c1.45,0.12,2.74-0.34,3.94-1.12c0.18-0.12,0.23-0.28,0.26-0.46
			c0.47-3.33,0.93-6.66,1.4-9.99c0.48-3.36,0.96-6.72,1.44-10.07c0.14-0.97,0.27-1.94,0.4-2.91c0.09-0.67,0.33-0.99,0.96-1.12
			c3.2-0.64,6.4-0.7,9.61-0.04c0.96,0.2,1.2,0.55,1.07,1.52c-0.21,1.56-0.44,3.12-0.66,4.67c-0.36,2.51-0.71,5.02-1.07,7.53
			c-0.42,2.93-0.84,5.87-1.25,8.8c-0.38,2.69-0.77,5.38-1.13,8.08c-0.47,3.48-1.09,6.91-2.62,10.12c-2.26,4.77-5.99,7.7-11.12,8.88
			c-1.27,0.29-2.55,0.47-3.85,0.55c-0.08,0.01-0.19-0.03-0.23,0.09C211.61,117.03,210.35,117.03,209.1,117.03z"/>
		<path d="M51.48,65.77c1.14-0.02,2.2,0.03,3.26,0.25c1.36,0.28,2.6,0.8,3.66,1.7c0.19,0.16,0.32,0.24,0.39-0.09
			c0.13-0.59,0.55-0.84,1.11-0.94c2.26-0.41,4.53-0.39,6.81-0.22c0.61,0.05,1.21,0.14,1.82,0.22c0.95,0.13,1.26,0.5,1.13,1.46
			c-0.27,2.08-0.57,4.15-0.86,6.22c-0.35,2.53-0.71,5.05-1.06,7.58c-0.44,3.18-0.9,6.35-1.33,9.53c-0.11,0.82-0.15,1.65,0.04,2.46
			c0.29,1.23,1.38,1.73,2.51,1.16c0.79-0.4,1.35-1.05,1.86-1.74c0.43-0.58,0.82-1.18,1.22-1.78c0.44-0.65,0.79-0.77,1.52-0.52
			c2.39,0.82,4.85,1.26,7.37,1.32c0.99,0.02,1.99-0.02,2.93-0.42c0.55-0.23,0.94-0.59,1.09-1.2c0.11-0.44-0.01-0.78-0.36-1.05
			c-0.49-0.39-1.07-0.59-1.64-0.81c-1.56-0.59-3.19-0.97-4.72-1.64c-3.09-1.36-5.29-3.51-5.96-6.94c-0.48-2.47-0.11-4.88,0.83-7.19
			c1.42-3.49,4.1-5.55,7.63-6.6c2.56-0.76,5.19-0.92,7.85-0.79c1.99,0.1,3.96,0.34,5.88,0.86c0.87,0.24,1.72,0.54,2.53,0.94
			c0.86,0.43,0.99,0.68,0.85,1.64c-0.29,2.05-0.99,3.94-2.29,5.58c-0.08,0.1-0.16,0.18-0.23,0.28c-0.69,0.94-1.49,1.22-2.69,0.84
			c-2.06-0.65-4.22-0.83-6.39-0.73c-0.66,0.03-1.31,0.12-1.93,0.36c-0.57,0.22-1.05,0.54-1.27,1.17c-0.12,0.36-0.03,0.62,0.25,0.85
			c0.31,0.25,0.68,0.41,1.05,0.56c1.45,0.58,2.97,0.95,4.44,1.45c1.62,0.55,3.15,1.26,4.46,2.38c1.75,1.49,2.69,3.41,2.96,5.67
			c0.25,2.16-0.03,4.28-0.67,6.34c-1.21,3.89-3.93,6.2-7.77,7.28c-2.9,0.81-5.87,0.92-8.87,0.77c-3.04-0.15-5.91-0.89-8.67-2.14
			c-0.21-0.1-0.36-0.07-0.54,0.06c-1.91,1.35-4.05,1.94-6.36,2.09c-1.81,0.11-3.57-0.02-5.25-0.76c-1.01-0.44-1.88-1.08-2.51-2.01
			c-0.14-0.21-0.24-0.19-0.43-0.06c-2.09,1.49-4.42,2.45-6.97,2.75c-3.21,0.38-6.2-0.18-8.65-2.49c-1.63-1.53-2.5-3.49-3-5.63
			c-0.55-2.34-0.64-4.72-0.49-7.11c0.2-3.17,0.66-6.29,1.49-9.35c0.69-2.54,1.66-4.96,3.31-7.05c1.95-2.48,4.55-3.83,7.63-4.32
			C49.49,65.8,50.51,65.73,51.48,65.77z M46.78,88.19c0.01,1.02,0.06,2.02,0.39,2.99c0.26,0.78,0.72,1.42,1.52,1.66
			c1.43,0.44,2.85,0.4,4.14-0.46c1.5-1.01,2.17-2.53,2.42-4.25c0.35-2.36,0.68-4.72,0.99-7.08c0.15-1.15,0.43-2.29,0.21-3.46
			c-0.2-1.07-0.62-1.99-1.62-2.53c-1.45-0.79-3.7-0.45-4.87,0.73c-0.66,0.66-1.09,1.48-1.42,2.34
			C47.34,81.37,46.98,84.76,46.78,88.19z"/>
		<path d="M136.46,68.54c1.12-1.11,2.42-1.71,3.88-1.98c2.04-0.38,4.05-0.39,5.95,0.59c0.54,0.28,1.01,0.64,1.43,1.07
			c0.86,0.89,0.99,1.98,0.74,3.12c-0.51,2.37-1.81,4.23-3.88,5.5c-1.3,0.79-2.61,0.84-3.89-0.13c-1.64-1.23-3.91-0.42-4.55,1.36
			c-0.22,0.61-0.23,1.26-0.32,1.89c-0.46,3.21-0.9,6.41-1.35,9.62c-0.41,2.95-0.82,5.9-1.24,8.85c-0.07,0.5-0.13,1-0.21,1.5
			c-0.08,0.52-0.35,0.88-0.88,0.99c-3.2,0.64-6.41,0.71-9.61,0.07c-1.03-0.2-1.24-0.53-1.13-1.57c0.02-0.17,0.05-0.33,0.07-0.5
			c-0.03-0.01-0.07-0.02-0.08-0.01c-1.81,1.77-4.07,2.56-6.5,2.92c-2.58,0.38-5.15,0.31-7.69-0.33c-3.84-0.97-6.06-3.55-6.49-7.49
			c-0.23-2.09-0.05-4.15,0.23-6.21c0.35-2.54,0.71-5.08,1.07-7.62c0.2-1.42,0.38-2.85,0.6-4.27c0.05-0.34-0.01-0.43-0.35-0.42
			c-0.5,0.02-1.01,0.01-1.51,0c-0.69-0.01-1.07-0.31-1.15-0.99c-0.26-2.51,0.11-4.94,1.06-7.27c0.19-0.46,0.55-0.67,1.05-0.66
			c0.63,0.01,1.26-0.01,1.88,0.01c0.28,0.01,0.38-0.11,0.41-0.36c0.18-1.35,0.39-2.69,0.55-4.04c0.07-0.56,0.31-0.93,0.82-1.16
			c1.81-0.84,3.72-1.27,5.69-1.5c1.35-0.16,2.71-0.16,4.07-0.09c1.02,0.05,1.39,0.46,1.27,1.45c-0.21,1.67-0.45,3.33-0.69,4.99
			c-0.1,0.7-0.12,0.7,0.6,0.7c1.56,0,3.12,0,4.68,0c0.76,0,1.12,0.29,1.2,1.03c0.29,2.52-0.16,4.93-1.1,7.26
			c-0.19,0.47-0.59,0.63-1.07,0.63c-1.74,0-3.49,0.01-5.23-0.01c-0.36,0-0.48,0.08-0.53,0.46c-0.53,3.95-1.08,7.9-1.64,11.85
			c-0.11,0.8-0.21,1.6-0.2,2.42c0.02,1.48,0.49,2.09,1.95,2.29c2.33,0.32,4.55-0.04,6.53-1.39c1.4-0.95,2-2.36,2.21-4
			c0.42-3.23,0.9-6.45,1.35-9.67c0.41-2.92,0.83-5.84,1.21-8.76c0.22-1.67,0.22-1.75,1.89-2.03c2.44-0.41,4.89-0.51,7.34-0.07
			c0.22,0.04,0.45,0.11,0.66,0.2c0.55,0.22,0.88,0.59,0.85,1.22C136.43,68.17,136.45,68.31,136.46,68.54z"/>
	</g>
</g>
</svg>
