<?xml version="1.0" encoding="utf-8"?>
<!-- Generator: Adobe Illustrator 23.0.1, SVG Export Plug-In . SVG Version: 6.00 Build 0)  -->
<svg version="1.1" id="Lager_1" xmlns="http://www.w3.org/2000/svg" xmlns:xlink="http://www.w3.org/1999/xlink" x="0px" y="0px"
	 viewBox="0 0 841.9 595.3" style="enable-background:new 0 0 841.9 595.3;" xml:space="preserve">
<style type="text/css">
	.st0{fill:#1D1D1B;}
</style>
<g>
	<path class="st0" d="M420.3,310.1c1.4,0,2.7-0.2,4.2-0.8c3-1.2,5.1-3.2,6.5-6.1c0.3-0.7,0-1.4-0.7-1.7c-0.6-0.3-1.5-0.1-1.8,0.6
		c-0.4,0.9-0.9,1.6-1.6,2.3c-3,3.2-7.7,3.8-11.4,1.5c-2.5-1.6-4-3.8-4.3-6.8c-0.4-3.9,1.2-6.9,4.5-8.8c2.8-1.6,5.7-1.6,8.5-0.2
		c1.9,0.9,3.3,2.4,4.2,4.4c0.3,0.7,1.2,0.9,1.9,0.6c0.7-0.3,0.9-1,0.6-1.7c-0.2-0.5-0.5-1-0.8-1.5c-2.2-3.4-5.4-5.2-9.5-5.5
		c-2.8-0.2-5.4,0.6-7.7,2.4c-3.9,3.2-5.4,7.3-4.3,12.2C410,306.5,414.8,310.1,420.3,310.1z M426.6,297c-0.8,0-1.4,0.6-1.4,1.3
		c0,0.8,0.6,1.4,1.3,1.4c0.8,0,1.4-0.6,1.4-1.4C428,297.6,427.4,297,426.6,297z M422.8,297c-0.8,0-1.4,0.6-1.4,1.4
		c0,0.8,0.6,1.4,1.4,1.4c0.7,0,1.4-0.6,1.4-1.4C424.1,297.6,423.5,297,422.8,297z M429.1,298.4c0,0.7,0.6,1.4,1.3,1.3
		c0.8,0,1.4-0.6,1.4-1.4c0-0.7-0.6-1.3-1.4-1.3C429.7,297,429.1,297.6,429.1,298.4z"/>
	<path class="st0" d="M420.3,310.1c-5.5,0-10.3-3.7-11.5-9c-1.1-4.9,0.4-9,4.3-12.2c2.2-1.8,4.8-2.6,7.7-2.4
		c4.1,0.2,7.2,2.1,9.5,5.5c0.3,0.5,0.6,1,0.8,1.5c0.3,0.7,0.1,1.4-0.6,1.7c-0.7,0.3-1.6,0-1.9-0.6c-0.9-1.9-2.3-3.4-4.2-4.4
		c-2.9-1.4-5.8-1.4-8.5,0.2c-3.3,2-4.9,5-4.5,8.8c0.3,2.9,1.8,5.2,4.3,6.8c3.7,2.3,8.4,1.7,11.4-1.5c0.7-0.7,1.2-1.5,1.6-2.3
		c0.3-0.7,1.2-0.9,1.8-0.6c0.7,0.3,1,1.1,0.7,1.7c-1.4,2.9-3.5,4.9-6.5,6.1C423,309.9,421.7,310.1,420.3,310.1z"/>
	<path class="st0" d="M426.6,297c0.7,0,1.4,0.6,1.4,1.3c0,0.8-0.6,1.4-1.4,1.4c-0.7,0-1.4-0.6-1.3-1.4
		C425.3,297.6,425.9,297,426.6,297z"/>
	<path class="st0" d="M422.8,297c0.7,0,1.3,0.6,1.4,1.3c0,0.7-0.6,1.4-1.4,1.4c-0.8,0-1.4-0.6-1.4-1.4
		C421.4,297.6,422,297,422.8,297z"/>
	<path class="st0" d="M429.1,298.4c0-0.8,0.6-1.4,1.3-1.4c0.8,0,1.4,0.6,1.4,1.3c0,0.8-0.6,1.4-1.4,1.4
		C429.7,299.7,429.1,299.1,429.1,298.4z"/>
</g>
</svg>
