<?xml version="1.0" encoding="utf-8"?>
<!-- Generator: Adobe Illustrator 23.0.1, SVG Export Plug-In . SVG Version: 6.00 Build 0)  -->
<svg version="1.1" id="Lager_1" xmlns="http://www.w3.org/2000/svg" xmlns:xlink="http://www.w3.org/1999/xlink" x="0px" y="0px"
	 viewBox="0 0 80.4 81.1" style="enable-background:new 0 0 80.4 81.1;" xml:space="preserve">
<g>
	<path d="M40.7,81.1c4.8,0,9.3-0.7,14.4-2.7c10.2-4,17.7-11,22.3-20.9c1.1-2.3,0-4.8-2.4-5.9c-1.9-0.9-5.1-0.5-6.2,2.1
		c-1.3,3-3.1,5.7-5.4,8.1c-10.3,11-26.3,13.2-39.2,5.3c-8.7-5.3-13.7-13.2-14.7-23.2c-1.2-13.3,4.1-23.7,15.6-30.4
		c9.4-5.6,19.5-5.7,29.4-0.8c6.6,3.2,11.4,8.2,14.5,15c1,2.3,4,3.3,6.5,2.1c2.4-1.1,3.3-3.6,2.1-5.9c-0.8-1.7-1.7-3.4-2.7-5
		C67.2,7.1,56.2,0.8,42.3,0.1c-9.8-0.5-18.8,2.2-26.3,8.3C2.5,19.3-2.5,33.4,1.3,50.2C5.4,68.5,21.9,81.1,40.7,81.1z M62.7,36
		c-2.6,0-4.7,2-4.7,4.6s2,4.8,4.7,4.8c2.7,0,4.8-2.1,4.8-4.8C67.3,38,65.2,36,62.7,36z M49.5,36c-2.7,0-4.7,2-4.7,4.7
		c0,2.6,2.1,4.7,4.7,4.7c2.6,0,4.7-2.2,4.7-4.8C54.2,38.1,52.1,36,49.5,36z M71,40.7c0,2.6,2.1,4.7,4.7,4.7c2.7,0,4.8-2.1,4.8-4.8
		c0-2.6-2.2-4.6-4.8-4.6C73,36,71,38.1,71,40.7z"/>
	<path d="M40.7,81.1c-18.8,0-35.3-12.6-39.5-30.9C-2.5,33.4,2.5,19.3,15.9,8.4c7.6-6.1,16.6-8.9,26.3-8.3c13.9,0.7,24.9,7,32.6,18.8
		c1,1.6,1.9,3.3,2.7,5c1.2,2.4,0.3,4.9-2.1,5.9C73,30.9,70,30,69,27.7c-3-6.7-7.9-11.7-14.5-15c-9.9-4.8-19.9-4.8-29.4,0.8
		C13.6,20.2,8.3,30.6,9.5,43.9c0.9,10.1,6,17.9,14.6,23.2c12.8,8,28.9,5.7,39.2-5.3c2.2-2.4,4.1-5,5.4-8.1c1.1-2.6,4.3-3,6.2-2.1
		c2.4,1.1,3.5,3.7,2.4,5.9c-4.7,10-12.2,16.9-22.3,20.9C50.1,80.4,45.7,81.1,40.7,81.1z"/>
	<path d="M62.7,36c2.6,0,4.7,2,4.7,4.6c0,2.7-2.1,4.8-4.8,4.8c-2.6,0-4.7-2.2-4.7-4.8C58,38,60.1,36,62.7,36z"/>
	<path d="M49.5,36c2.6,0,4.7,2.1,4.7,4.7s-2.1,4.8-4.7,4.8c-2.7,0-4.7-2.1-4.7-4.7C44.8,38,46.9,36,49.5,36z"/>
	<path d="M71,40.7c0-2.6,2-4.7,4.6-4.7s4.8,2,4.8,4.6c0,2.7-2.1,4.8-4.8,4.8C73.1,45.4,71.1,43.2,71,40.7z"/>
</g>
</svg>
