<?xml version="1.0" encoding="utf-8"?>
<!-- Generator: Adobe Illustrator 23.0.1, SVG Export Plug-In . SVG Version: 6.00 Build 0)  -->
<svg version="1.1" id="Lager_1" xmlns="http://www.w3.org/2000/svg" xmlns:xlink="http://www.w3.org/1999/xlink" x="0px" y="0px"
	 viewBox="0 0 87.9 88.7" style="enable-background:new 0 0 87.9 88.7;" xml:space="preserve">
<style type="text/css">
	.st0{fill:#1D1D1B;}
</style>
<g>
	<path class="st0" d="M44.5,88.7c5.3,0,10.2-0.8,15.7-2.9c11.2-4.4,19.3-12,24.4-22.9c1.2-2.5,0-5.3-2.6-6.4c-2.1-1-5.6-0.5-6.8,2.3
		c-1.4,3.3-3.4,6.2-5.9,8.8C58,79.6,40.5,82,26.5,73.4C17,67.6,11.5,59,10.4,48c-1.3-14.5,4.5-25.9,17-33.2
		c10.3-6.1,21.3-6.2,32.1-0.9c7.2,3.5,12.5,9,15.8,16.4c1.1,2.5,4.4,3.6,7.1,2.3c2.6-1.2,3.6-3.9,2.3-6.5c-0.9-1.9-1.9-3.7-3-5.5
		C73.4,7.8,61.4,0.9,46.2,0.1C35.5-0.5,25.7,2.5,17.4,9.2C2.7,21.1-2.8,36.5,1.4,54.9C5.9,74.9,23.9,88.7,44.5,88.7z M68.5,39.4
		c-2.8,0-5.1,2.2-5.1,5c0,2.8,2.2,5.2,5.1,5.2c2.9,0,5.2-2.3,5.2-5.2C73.6,41.6,71.3,39.4,68.5,39.4z M54.1,39.4
		c-2.9,0-5.1,2.2-5.1,5.1c0,2.8,2.3,5.1,5.1,5.1c2.8,0,5.1-2.4,5.1-5.2C59.2,41.7,56.9,39.4,54.1,39.4z M77.6,44.5
		c0,2.8,2.3,5.1,5.1,5.1c2.9,0,5.2-2.3,5.2-5.2c0-2.8-2.4-5-5.2-5C79.8,39.4,77.6,41.7,77.6,44.5z"/>
	<path class="st0" d="M44.5,88.7c-20.6,0-38.6-13.8-43.2-33.8C-2.8,36.5,2.7,21.1,17.4,9.2c8.3-6.7,18.1-9.7,28.8-9.1
		c15.2,0.8,27.2,7.7,35.6,20.5c1.1,1.7,2.1,3.6,3,5.5c1.3,2.6,0.3,5.4-2.3,6.5c-2.7,1.2-6,0.2-7.1-2.3c-3.3-7.3-8.6-12.8-15.8-16.4
		c-10.8-5.3-21.8-5.2-32.1,0.9C14.9,22.1,9.1,33.5,10.4,48c1,11,6.6,19.6,16,25.4c14,8.7,31.6,6.2,42.9-5.8c2.4-2.6,4.5-5.5,5.9-8.8
		c1.2-2.8,4.7-3.3,6.8-2.3c2.6,1.2,3.8,4,2.6,6.4c-5.1,10.9-13.3,18.5-24.4,22.9C54.8,87.9,49.9,88.7,44.5,88.7z"/>
	<path class="st0" d="M68.5,39.4c2.8,0,5.1,2.2,5.1,5c0,2.9-2.3,5.2-5.2,5.2c-2.8,0-5.1-2.4-5.1-5.2C63.4,41.6,65.7,39.4,68.5,39.4z
		"/>
	<path class="st0" d="M54.1,39.4c2.8,0,5.1,2.3,5.1,5.1c0,2.8-2.3,5.2-5.1,5.2c-2.9,0-5.1-2.3-5.1-5.1C49,41.6,51.2,39.4,54.1,39.4z
		"/>
	<path class="st0" d="M77.6,44.5c0-2.8,2.2-5.1,5-5.1c2.8,0,5.2,2.2,5.2,5c0,2.9-2.3,5.2-5.2,5.2C79.9,49.6,77.7,47.3,77.6,44.5z"/>
</g>
<g>
</g>
<g>
</g>
<g>
</g>
<g>
</g>
<g>
</g>
<g>
</g>
<g>
</g>
<g>
</g>
<g>
</g>
<g>
</g>
<g>
</g>
<g>
</g>
<g>
</g>
<g>
</g>
<g>
</g>
</svg>
