<?xml version="1.0" encoding="utf-8"?>
<!-- Generator: Adobe Illustrator 23.0.1, SVG Export Plug-In . SVG Version: 6.00 Build 0)  -->
<svg version="1.1" id="Lager_1" xmlns="http://www.w3.org/2000/svg" xmlns:xlink="http://www.w3.org/1999/xlink" x="0px" y="0px"
	 viewBox="0 0 17.3 17.8" style="enable-background:new 0 0 17.3 17.8;" xml:space="preserve">
<title>jta</title>
<path d="M8.7,17.8C4,17.8,0,14,0,8.8C0,3.9,3.8,0,8.6,0c4.7,0,8.7,3.8,8.6,8.9C17.3,13.9,13.3,17.7,8.7,17.8z M9.1,13.9
	c0.9,0.3,1.6,0.2,2.3-0.3c0.9-0.7,1.2-1.7,1.3-2.8c0-2.4,0-4.8,0-7.2c0-0.5-0.1-0.5-0.5-0.4c-1.5,0.3-2.3,1.4-2.3,3
	c0,1.4,0,2.7,0,4.1C9.8,11.5,9.8,12.8,9.1,13.9z M9.1,14.6C8,14.1,7.5,13.2,7.4,12c0-0.2-0.1-0.4-0.4-0.4c-0.7,0-1.4,0-2,0
	c-0.2,0-0.3,0.1-0.3,0.4c0.1,1.1,0.6,1.8,1.6,2.3C7.1,14.7,8.1,14.6,9.1,14.6L9.1,14.6z"/>
</svg>
