<svg id="Lager_1" data-name="Lager 1" xmlns="http://www.w3.org/2000/svg" viewBox="0 0 357.59 367.48"><title>jta</title><path d="M179.71,367.47C83,368.19-.24,289.37,0,183,.23,81.27,78.49.07,178.71,0c98.21-.07,179.18,79.12,178.88,184.55C357.29,288.64,275.8,367.23,179.71,367.47Zm7.7-80.13c17.71,6.4,33.32,4.79,47.38-5.47,19-13.82,25.84-34.7,26.12-57.68.59-49.73.23-99.47.19-149.2,0-9.6-1.93-11.08-10.88-9-30.62,6.94-48.12,29.6-48.16,62.47,0,28.46-.17,56.92.05,85.38C202.29,239,201.92,263.9,187.41,287.34Zm0,14c-22.46-9.74-32-28.62-34.86-52.29-.57-4.81-2.47-7.33-7.26-7.32q-21,.07-41.91-.05c-4.81,0-7.14,2-6.57,7.28,2.34,22,12,38.09,32.15,47C147.92,304.39,167.54,301.32,187.37,301.29Z"/></svg>