<?xml version="1.0" encoding="utf-8"?>
<!-- Generator: Adobe Illustrator 23.0.1, SVG Export Plug-In . SVG Version: 6.00 Build 0)  -->
<svg version="1.1" id="Lager_1" xmlns="http://www.w3.org/2000/svg" xmlns:xlink="http://www.w3.org/1999/xlink" x="0px" y="0px"
	 viewBox="0 0 336.4 345.7" style="enable-background:new 0 0 336.4 345.7;" xml:space="preserve">
<title>jta</title>
<path d="M169,345.7c-91,0.7-169.2-73.5-169-173.6C0.2,76.5,73.8,0.1,168.1,0c92.4-0.1,168.6,74.4,168.3,173.7
	C336.1,271.5,259.4,345.4,169,345.7z M176.3,270.3c16.7,6,31.3,4.5,44.6-5.2c17.9-13,24.3-32.6,24.6-54.3
	c0.6-46.8,0.2-93.6,0.2-140.4c0-9-1.8-10.4-10.3-8.5c-28.8,6.5-45.2,27.8-45.3,58.8c0,26.8-0.2,53.5,0.1,80.3
	C190.3,224.8,189.9,248.3,176.3,270.3z M176.3,283.4c-21.2-9.1-30.1-26.9-32.8-49.2c-0.6-4.5-2.4-6.9-6.9-6.9
	c-13.2,0-26.3,0-39.4-0.1c-4.5,0-6.7,1.9-6.2,6.9c2.2,20.7,11.3,35.8,30.3,44.2C139.1,286.4,157.6,283.4,176.3,283.4L176.3,283.4z"
	/>
</svg>
