<?xml version="1.0" encoding="utf-8"?>
<!-- Generator: Adobe Illustrator 23.0.1, SVG Export Plug-In . SVG Version: 6.00 Build 0)  -->
<svg version="1.1" id="Lager_1" xmlns="http://www.w3.org/2000/svg" xmlns:xlink="http://www.w3.org/1999/xlink" x="0px" y="0px"
	 viewBox="0 0 188 33.6" style="enable-background:new 0 0 188 33.6;" xml:space="preserve">
<style type="text/css">
	.st0{fill:none;}
</style>
<g>
	<path class="st0" d="M54.8,6.3c-1.6,0.3-2,1.6-2.2,2.9c-0.3,2.5-0.4,5.1-0.6,7.6c0.1,0,0.1,0,0.2,0c0,1.1-0.1,2.1,0,3.2
		c0.2,1.9,0.3,3.7,0.7,5.6c0.3,1.4,1.1,1.9,2.3,1.9c1.3,0,1.9-0.5,2.4-1.8c0.2-0.5,0.4-1.1,0.4-1.6c0.1-4.3,0.2-8.5,0.2-12.8
		c0-1.1-0.3-2.3-0.7-3.4C57.1,6.5,56,6.1,54.8,6.3z"/>
	<path d="M61.9,0.9C60.6,0.5,59.3,0.3,58,0c-1.9,0-3.8,0-5.6,0c-0.3,0.1-0.7,0.2-1,0.3c-7.9,1.2-13.7,6.2-14.6,14.2
		c-0.8,6.9,1.8,13.6,8.7,16.9c4.9,2.4,10.2,2.6,15.5,1.5c7.8-1.7,12.8-7.8,13-15.7C74.1,9.3,69.6,3.2,61.9,0.9z M58,24
		c0,0.5-0.2,1.1-0.4,1.6c-0.5,1.3-1.1,1.8-2.4,1.8c-1.2,0-2.1-0.5-2.3-1.9c-0.4-1.8-0.5-3.7-0.7-5.6c-0.1-1,0-2.1,0-3.2
		c-0.1,0-0.1,0-0.2,0c0.2-2.5,0.3-5.1,0.6-7.6c0.2-1.3,0.5-2.6,2.2-2.9c1.3-0.2,2.3,0.2,2.7,1.5c0.4,1.1,0.7,2.3,0.7,3.4
		C58.2,15.4,58.1,19.7,58,24z"/>
	<path d="M181.5,14.1c-2.2-1.1-4.4-2.1-6.6-3.2c-0.7-0.3-1.5-0.6-2-1.1s-1-1.3-0.9-1.8c0.1-0.6,0.9-1.2,1.5-1.4
		c0.7-0.3,1.5-0.2,2.3-0.2c2.8,0.1,5.3,1.1,7.7,2.3c0.8,0.4,1.6,0.8,2.5,1.3c0-2.2,0-4.2,0-6.2c0-0.8-0.2-1.2-1.1-1.5
		c-5.1-1.5-10.3-2-15.6-1.3c-3,0.4-5.8,1.1-8.3,3c-4.1,3.2-4.3,9.2-0.4,12.6c1.4,1.2,3.2,2.2,4.8,3.1c2,1.1,4.2,1.9,6.2,3
		c1.7,0.9,2.3,1.8,2,3c-0.2,1.1-1.3,1.6-3.1,1.7c-4.1,0.2-7.8-1.4-11.3-3.3c-0.5-0.3-0.9-0.5-1.5-0.8c0,2.8,0,5.3,0,7.8
		c0,0.3,0.4,0.7,0.7,0.8c1.6,0.4,3.3,0.8,4.9,1c5.3,0.8,10.7,1,16-0.1c3-0.6,5.7-1.8,7.4-4.5c0.6-0.9,0.9-2,1.3-3c0-1.3,0-2.5,0-3.8
		C187.1,17.7,184.5,15.7,181.5,14.1z"/>
	<path d="M109.2,16.5c-0.4-0.2-0.8-0.4-1.3-0.6c0.6-0.3,1-0.6,1.4-0.9c1.4-1,2.4-2.2,2.8-3.9c0.7-3.2-0.5-6.1-3.3-7.9
		c-2.3-1.5-4.8-2.1-7.5-2.1C94.5,1,87.7,1,80.9,1c-0.2,0-0.4,0-0.7,0.1c0,10.6,0,21.1,0,31.5c0.1,0.1,0.2,0.1,0.3,0.1
		c7.6-0.1,15.2-0.1,22.8-0.2c2.3-0.1,4.5-0.8,6.5-2.1c2.6-1.7,4-4.1,3.8-7.2C113.5,20.1,111.9,17.9,109.2,16.5z M93.4,7
		c2,0,4-0.4,5.4,1.4c0.8,1,0.8,2.9,0,3.9l-5.4,1.5C93.4,11.4,93.4,9.3,93.4,7z M99.2,24.7c-1.4,2.2-3.7,1.6-5.8,1.7
		c0-2.5,0-4.8,0-7.1c1.9-0.6,4.7-0.1,5.6,1.1C99.7,21.5,99.9,23.5,99.2,24.7z"/>
	<path d="M148.6,16.4c-0.4-0.2-0.7-0.4-1.1-0.6c2.7-1.8,3.5-2.7,4-4.4c0.9-3.3-0.3-6.5-3.2-8.3C146,1.7,143.5,1,140.8,1
		c-6.8-0.1-13.5-0.1-20.3-0.1c-0.2,0-0.4,0-0.7,0.1c0,10.6,0,21.1,0,31.6c0.2,0,0.4,0.1,0.5,0.1c6.7,0,13.5,0,20.2-0.1
		c3,0,6-0.6,8.7-2.2c2.8-1.7,4.2-4.2,4-7.6C153,19.8,151.3,17.8,148.6,16.4z M133,7c1.9,0,3.9-0.3,5.3,1.3c1,1.1,1,2.5,0.3,3.8
		c-1.3,2.1-3.4,1.6-5.5,1.7C133,11.4,133,9.3,133,7z M138.7,24.7c-1.3,2.2-3.6,1.6-5.7,1.7c0-2.5,0-4.8,0-7.3c2,0.1,4.2-0.4,5.6,1.5
		C139.5,21.9,139.5,23.5,138.7,24.7z"/>
	<path d="M24.9,15.2c-0.6-0.9-0.5-1.3,0.2-2C28.5,9.5,31.9,5.7,35.3,2c0.2-0.3,0.5-0.6,0.8-1c-4,0-7.7,0-11.4,0
		c-0.4,0-0.8,0.3-1,0.6c-1.8,2-3.5,4.1-5.3,6.2c-1.7,2-3.4,4-5.3,6.2c0-4.5,0-8.7,0-12.9c-4.4,0-8.8,0-13.1,0c0,10.6,0,21,0,31.5
		c4.4,0,8.7,0,13.1,0c0-4.3,0-8.4,0-12.9c0.4,0.5,0.7,0.9,0.9,1.2c2.5,3.6,5,7.3,7.6,10.9c0.3,0.4,0.8,0.8,1.2,0.8
		c4.7,0.1,9.4,0,14.4,0c-0.3-0.5-0.5-0.8-0.7-1.1C32.6,26.1,28.8,20.6,24.9,15.2z"/>
</g>
</svg>
