<?xml version="1.0" encoding="utf-8"?>
<!-- Generator: Adobe Illustrator 23.0.1, SVG Export Plug-In . SVG Version: 6.00 Build 0)  -->
<svg version="1.1" id="Lager_1" xmlns="http://www.w3.org/2000/svg" xmlns:xlink="http://www.w3.org/1999/xlink" x="0px" y="0px"
	 viewBox="0 0 841.9 595.3" style="enable-background:new 0 0 841.9 595.3;" xml:space="preserve">
<style type="text/css">
	.st0{fill:none;}
</style>
<g>
	<path class="st0" d="M410.2,294.5c-0.4,0.1-0.5,0.4-0.6,0.8c-0.1,0.7-0.1,1.3-0.2,2c0,0,0,0,0,0c0,0.3,0,0.6,0,0.8
		c0,0.5,0.1,1,0.2,1.5c0.1,0.4,0.3,0.5,0.6,0.5c0.3,0,0.5-0.1,0.6-0.5c0-0.1,0.1-0.3,0.1-0.4c0-1.1,0.1-2.3,0-3.4
		c0-0.3-0.1-0.6-0.2-0.9C410.8,294.5,410.6,294.4,410.2,294.5z"/>
	<path d="M412.1,293.1c-0.3-0.1-0.7-0.2-1-0.2c-0.5,0-1,0-1.5,0c-0.1,0-0.2,0.1-0.3,0.1c-2.1,0.3-3.6,1.7-3.9,3.8
		c-0.2,1.8,0.5,3.6,2.3,4.5c1.3,0.6,2.7,0.7,4.1,0.4c2.1-0.5,3.4-2.1,3.5-4.2C415.4,295.3,414.2,293.7,412.1,293.1z M411.1,299.2
		c0,0.1-0.1,0.3-0.1,0.4c-0.1,0.4-0.3,0.5-0.6,0.5c-0.3,0-0.6-0.1-0.6-0.5c-0.1-0.5-0.1-1-0.2-1.5c0-0.3,0-0.6,0-0.8c0,0,0,0,0,0
		c0.1-0.7,0.1-1.3,0.2-2c0-0.3,0.1-0.7,0.6-0.8c0.3-0.1,0.6,0.1,0.7,0.4c0.1,0.3,0.2,0.6,0.2,0.9
		C411.1,296.9,411.1,298.1,411.1,299.2z"/>
	<path d="M443.9,296.6c-0.6-0.3-1.2-0.6-1.8-0.9c-0.2-0.1-0.4-0.2-0.5-0.3c-0.1-0.1-0.3-0.3-0.2-0.5c0-0.1,0.2-0.3,0.4-0.4
		c0.2-0.1,0.4-0.1,0.6-0.1c0.7,0,1.4,0.3,2,0.6c0.2,0.1,0.4,0.2,0.7,0.3c0-0.6,0-1.1,0-1.7c0-0.2-0.1-0.3-0.3-0.4
		c-1.4-0.4-2.7-0.5-4.1-0.4c-0.8,0.1-1.6,0.3-2.2,0.8c-1.1,0.9-1.2,2.5-0.1,3.4c0.4,0.3,0.8,0.6,1.3,0.8c0.5,0.3,1.1,0.5,1.7,0.8
		c0.5,0.2,0.6,0.5,0.5,0.8c-0.1,0.3-0.3,0.4-0.8,0.5c-1.1,0-2.1-0.4-3-0.9c-0.1-0.1-0.2-0.1-0.4-0.2c0,0.7,0,1.4,0,2.1
		c0,0.1,0.1,0.2,0.2,0.2c0.4,0.1,0.9,0.2,1.3,0.3c1.4,0.2,2.8,0.3,4.3,0c0.8-0.2,1.5-0.5,2-1.2c0.1-0.2,0.2-0.5,0.3-0.8
		c0-0.3,0-0.7,0-1C445.4,297.5,444.7,297,443.9,296.6z"/>
	<path d="M424.7,297.2c-0.1-0.1-0.2-0.1-0.4-0.2c0.1-0.1,0.3-0.2,0.4-0.2c0.4-0.3,0.6-0.6,0.7-1c0.2-0.9-0.1-1.6-0.9-2.1
		c-0.6-0.4-1.3-0.6-2-0.6c-1.8,0-3.6,0-5.4,0c-0.1,0-0.1,0-0.2,0c0,2.8,0,5.6,0,8.4c0,0,0.1,0,0.1,0c2,0,4,0,6.1-0.1
		c0.6,0,1.2-0.2,1.7-0.5c0.7-0.4,1.1-1.1,1-1.9C425.9,298.2,425.4,297.6,424.7,297.2z M420.5,294.7c0.5,0,1.1-0.1,1.4,0.4
		c0.2,0.3,0.2,0.8,0,1l-1.4,0.4C420.5,295.9,420.5,295.3,420.5,294.7z M422,299.4c-0.4,0.6-1,0.4-1.6,0.5c0-0.7,0-1.3,0-1.9
		c0.5-0.2,1.2,0,1.5,0.3C422.2,298.5,422.2,299.1,422,299.4z"/>
	<path d="M435.2,297.2c-0.1,0-0.2-0.1-0.3-0.2c0.7-0.5,0.9-0.7,1.1-1.2c0.3-0.9-0.1-1.7-0.9-2.2c-0.6-0.4-1.3-0.5-2-0.6
		c-1.8,0-3.6,0-5.4,0c-0.1,0-0.1,0-0.2,0c0,2.8,0,5.6,0,8.4c0.1,0,0.1,0,0.1,0c1.8,0,3.6,0,5.4,0c0.8,0,1.6-0.1,2.3-0.6
		c0.8-0.5,1.1-1.1,1.1-2C436.4,298.1,435.9,297.5,435.2,297.2z M431,294.7c0.5,0,1-0.1,1.4,0.3c0.3,0.3,0.3,0.7,0.1,1
		c-0.3,0.6-0.9,0.4-1.5,0.5C431,295.9,431,295.3,431,294.7z M432.6,299.4c-0.4,0.6-1,0.4-1.5,0.4c0-0.7,0-1.3,0-1.9
		c0.5,0,1.1-0.1,1.5,0.4C432.8,298.6,432.8,299.1,432.6,299.4z"/>
	<path d="M402.3,296.9c-0.2-0.2-0.1-0.4,0-0.5c0.9-1,1.8-2,2.7-3c0.1-0.1,0.1-0.1,0.2-0.3c-1.1,0-2,0-3,0c-0.1,0-0.2,0.1-0.3,0.2
		c-0.5,0.5-0.9,1.1-1.4,1.6c-0.4,0.5-0.9,1.1-1.4,1.6c0-1.2,0-2.3,0-3.4c-1.2,0-2.3,0-3.5,0c0,2.8,0,5.6,0,8.4c1.2,0,2.3,0,3.5,0
		c0-1.1,0-2.2,0-3.4c0.1,0.1,0.2,0.2,0.2,0.3c0.7,1,1.3,1.9,2,2.9c0.1,0.1,0.2,0.2,0.3,0.2c1.3,0,2.5,0,3.8,0
		c-0.1-0.1-0.1-0.2-0.2-0.3C404.3,299.8,403.3,298.3,402.3,296.9z"/>
</g>
</svg>
