<?xml version="1.0" encoding="utf-8"?>
<!-- Generator: Adobe Illustrator 23.0.1, SVG Export Plug-In . SVG Version: 6.00 Build 0)  -->
<svg version="1.1" id="Lager_1" xmlns="http://www.w3.org/2000/svg" xmlns:xlink="http://www.w3.org/1999/xlink" x="0px" y="0px"
	 viewBox="0 0 176.7 67.4" style="enable-background:new 0 0 176.7 67.4;" xml:space="preserve">
<g>
	<g>
		<path d="M0,34.7c0-0.5,0-1.1,0-1.6c0-0.1,0.1-0.3,0.1-0.4C0.2,30.8,0.8,29,2,27.5c3.6-4.9,7.2-9.8,10.8-14.7
			c2.1-2.9,4.8-5,8.1-6.3c2.3-0.9,4.6-1.5,7-1.9c4.5-0.7,9-1.4,13.4-2c3.7-0.5,7.5-0.9,11.2-1.2c3.1-0.3,6.3-0.5,9.4-0.7
			c3.7-0.2,7.4-0.4,11.2-0.5c4.1-0.1,8.3-0.3,12.4-0.2c6.8,0,13.7,0.1,20.5,0.2c1.6,0,3.1,0.1,4.7,0.2c2.4,0.1,4.9,0.3,7.3,0.4
			c1.7,0.1,3.4,0.2,5.1,0.4c2.3,0.2,4.6,0.4,6.9,0.7c2.2,0.2,4.5,0.5,6.7,0.7c2.8,0.3,5.6,0.7,8.4,1.1c3,0.5,6,1,9,1.6
			c4.9,1,8.9,3.5,11.6,7.8c3.1,4.8,6.4,9.6,9.5,14.4c0.5,0.7,0.8,1.6,1.1,2.5c0.2,0.8,0.4,1.7,0.4,2.6c0.2,2.6-0.3,5-1.9,7.2
			c-3.6,4.9-7.2,9.8-10.8,14.7c-2.2,2.9-5,5.1-8.4,6.4c-2.2,0.8-4.5,1.4-6.8,1.8c-5.1,0.8-10.2,1.5-15.3,2.2
			c-3.8,0.5-7.6,0.8-11.5,1.2c-3.5,0.3-7,0.5-10.5,0.7c-3.7,0.2-7.5,0.3-11.2,0.4c-3.5,0.1-7,0.2-10.6,0.2c-5.3,0-10.6-0.1-15.8-0.2
			c-1.8,0-3.7-0.1-5.5-0.2c-3.1-0.2-6.3-0.3-9.4-0.5c-2.1-0.1-4.2-0.3-6.3-0.5c-2.2-0.2-4.5-0.4-6.7-0.7c-2.2-0.2-4.4-0.5-6.6-0.7
			c-2.3-0.3-4.7-0.6-7-0.9c-3.1-0.5-6.2-1-9.3-1.6c-2-0.4-3.9-1-5.7-1.9c-2.8-1.4-4.8-3.6-6.5-6.1c-3.1-4.7-6.3-9.4-9.4-14.2
			C0.9,39,0.5,38,0.3,37C0.2,36.2,0.1,35.5,0,34.7z M86.3,60.9c3.7-0.1,6.9-0.1,10-0.2c4.2-0.1,8.4-0.4,12.6-0.6
			c2.8-0.1,5.6-0.3,8.4-0.6c3.3-0.3,6.5-0.6,9.8-1c2.9-0.4,5.8-0.8,8.7-1.3c5.4-1,9.7-3.7,12.9-8.2c2.1-3,4.3-5.8,6.4-8.8
			c0.4-0.6,0.8-1.2,1.2-1.9c1.1-1.9,1.5-3.9,1.2-6.1c-0.3-2.2-1.2-4.2-2.4-6c-1.9-2.8-3.8-5.6-5.7-8.4c-2.6-3.9-6.1-6.4-10.7-7.4
			c-3.6-0.8-7.2-1.4-10.8-1.8c-3.8-0.4-7.6-0.8-11.4-1.1c-2.9-0.3-5.9-0.5-8.9-0.6c-4.6-0.2-9.1-0.5-13.7-0.5
			C88.4,6.3,83,6.5,77.5,6.6c-2,0-4.1,0.2-6.1,0.3c-3,0.2-6.1,0.4-9.1,0.6c-2.3,0.2-4.7,0.3-7,0.6c-2.6,0.2-5.2,0.5-7.7,0.9
			c-2.4,0.3-4.9,0.8-7.3,1.2c-5.2,1-9.2,3.9-12.2,8.1c-1.8,2.6-3.7,5.1-5.6,7.6c-0.7,1-1.5,2.1-2.1,3.2c-1,1.7-1.3,3.6-1.1,5.5
			c0.2,2.1,1,4,2.1,5.8c2.1,3.2,4.2,6.3,6.4,9.5c2.3,3.3,5.4,5.5,9.4,6.6c2.6,0.7,5.3,1.2,7.9,1.5c3.3,0.4,6.7,0.8,10,1.2
			c3.4,0.3,6.8,0.6,10.2,0.9c3.1,0.2,6.3,0.4,9.4,0.5C78.9,60.7,82.9,60.8,86.3,60.9z"/>
		<path d="M66.9,18.5c-0.3,0.4-0.6,0.8-0.8,1.1c-3.6,4.9-7.2,9.8-10.8,14.6c-0.2,0.3-0.2,0.5,0,0.8c3.4,5,6.7,10,10.1,15.1
			c0.1,0.2,0.2,0.3,0.3,0.5c-0.2,0-0.3,0-0.5,0c-2.5,0-5,0-7.5,0c-0.3,0-0.5-0.1-0.7-0.4c-2.9-4.5-5.9-8.9-8.8-13.4
			c-0.1-0.2-0.2-0.3-0.4-0.5c0,4.7,0,9.4,0,14.2c-2.4,0-4.8,0-7.2,0c0-10.7,0-21.4,0-32.1c2.4,0,4.8,0,7.2,0c0,5,0,10,0,15.1h0.1
			c0.1-0.1,0.2-0.2,0.3-0.3c3.5-4.8,6.9-9.6,10.4-14.4c0.2-0.3,0.5-0.5,0.9-0.4c2.3,0,4.7,0,7,0C66.4,18.5,66.6,18.5,66.9,18.5z"/>
		<path d="M93.7,36.3c0.1-1.5-0.5-2.6-1.7-3.1c-1.4-0.6-2.8-0.7-4.2-0.6c-1.4,0.1-2.8,0.4-4.1,0.6c-0.1,0-0.2,0-0.3,0
			c0-2.1,0-4.2,0-6.4c1-0.1,2-0.3,3-0.3c1.8-0.1,3.6-0.1,5.3,0s3.3,0.5,4.9,1.3c2.1,1.1,3.3,3,3.7,5.3c0.2,1.2,0.3,2.5,0.3,3.8
			c0,4.5,0,8.9,0,13.4c0,0.1,0,0.2,0,0.4c-2.2,0-4.4,0-6.6,0c0-0.4,0-0.7,0-1.2c-0.2,0.1-0.4,0.2-0.5,0.3c-2.8,1.6-5.8,1.9-8.7,0.4
			c-3-1.5-4.1-4.5-3.9-7.4c0.3-3.3,2.6-5.9,6.5-6.7c2-0.4,4-0.3,6,0.2C93.5,36.2,93.6,36.2,93.7,36.3z M93.8,43.2c0-0.6,0-1.2,0-1.9
			c0-0.2,0-0.4-0.3-0.4c-1.4-0.4-2.9-0.5-4.4-0.1c-1.3,0.4-1.9,1.3-1.9,2.6c0,1.2,0.7,2.1,1.9,2.5c1.6,0.5,3.1,0.2,4.5-0.5
			c0.1,0,0.2-0.3,0.2-0.4C93.8,44.4,93.8,43.8,93.8,43.2z"/>
		<path d="M117.6,26.9c0,0.2,0,0.4,0,0.5c0,1.7,0,3.3,0,5c0,0.4-0.1,0.5-0.5,0.5c-1.1,0-2.2,0-3.4,0c-0.8,0-0.7-0.1-0.7,0.8
			c0,5.5,0,10.9,0,16.4c0,0.2,0,0.4,0,0.6c-2.3,0-4.5,0-6.7,0c0-0.2,0-0.4,0-0.6c0-5.5,0-11.1,0-16.6c0-0.6,0-0.6-0.6-0.6
			c-0.7,0-1.5,0-2.2,0c0,0-0.1,0-0.1-0.1c0-1.9,0-3.9,0-5.9c1,0,1.9,0,2.9,0c0-0.3,0-0.5,0-0.7c0-1.8,0.2-3.6,1-5.3
			c1.1-2.4,3.1-3.8,5.6-4.4c1.9-0.4,3.7-0.4,5.6-0.2c0.1,0,0.2,0,0.3,0.1c0,2,0,3.9,0,5.9c-0.6-0.1-1.2-0.1-1.8-0.1
			c-0.4,0-0.9,0-1.3,0.1c-1.6,0.3-2.5,1.3-2.6,2.9c0,0.6,0,1.1,0,1.8C114.6,26.9,116.1,26.9,117.6,26.9z"/>
		<path d="M129.8,32.8c0,0.2,0,0.3,0,0.4c0,2.5,0,5,0,7.5c0,0.6,0.1,1.2,0.3,1.8c0.4,1.5,1.5,2.3,3.2,2.4c0.4,0,0.8,0.1,1.2,0.1
			c0,2,0,4,0,6c-1.1,0-2.1,0.1-3.2,0c-1.7-0.1-3.4-0.6-4.8-1.7c-1.9-1.4-2.8-3.3-3.2-5.5c-0.2-1-0.2-2.1-0.3-3.1c0-2.4,0-4.8,0-7.2
			c0-0.2,0-0.3,0-0.6c-0.8,0-1.5,0-2.2,0c-0.6,0-0.6,0-0.6-0.6c0-1.6,0-3.2,0-4.8c0-0.2,0-0.3,0-0.5c0.9,0,1.8,0,2.8,0
			c0-0.2,0-0.4,0-0.6c0-1.8,0-3.7,0-5.5c0-0.3,0-0.4,0.4-0.4c2,0,4.1,0,6.1,0c0.1,0,0.2,0,0.3,0c0,2.1,0,4.2,0,6.4c1.7,0,3.4,0,5,0
			c0,2,0,3.9,0,5.9C133.1,32.8,131.4,32.8,129.8,32.8z"/>
		<path d="M80.5,27.1c0,2.2,0,4.4,0,6.6c-1.4,0.2-2.6,0.7-3.7,1.5c-1.6,1.2-2.4,2.8-2.4,4.8c0,3.4,0,6.7,0,10.1c0,0.2,0,0.4,0,0.6
			c-2.3,0-4.6,0-6.8,0c0-7.8,0-15.7,0-23.6c0.1,0,0.3,0,0.4,0c2,0,4,0,5.9,0c0.4,0,0.5,0.1,0.5,0.5c0,1.2,0,2.4,0,3.5
			c0,0.1,0,0.3,0,0.4l0.1,0.1C75.6,28.9,77.7,27.5,80.5,27.1z"/>
	</g>
</g>
</svg>
