<?xml version="1.0" encoding="utf-8"?>
<!-- Generator: Adobe Illustrator 23.0.1, SVG Export Plug-In . SVG Version: 6.00 Build 0)  -->
<svg version="1.1" id="Lager_1" xmlns="http://www.w3.org/2000/svg" xmlns:xlink="http://www.w3.org/1999/xlink" x="0px" y="0px"
	 viewBox="0 0 841.9 595.3" style="enable-background:new 0 0 841.9 595.3;" xml:space="preserve">
<g>
	<path d="M407.3,296c-0.3-0.4-0.7-0.6-1.2-0.5c-0.7,0.1-1.2,0.6-1.5,1.2c-0.2,0.6-0.4,1.2-0.3,1.8c0,0.3,0.1,0.5,0.2,0.8
		c0.1,0.2,0.3,0.4,0.6,0.4c0.2,0,0.5-0.1,0.7-0.2c0.3-0.1,0.5-0.1,0.5,0.2c0,0.3,0,0.6-0.1,0.9c-0.1,0.5-0.3,1-0.7,1.3
		c-0.5,0.4-1.1,0.4-1.5-0.2c-0.2-0.4-0.4-0.7-0.4-1.2c-0.1-1-0.1-2.1-0.2-3.1c-0.1-1-0.1-1.9-0.2-2.9c-0.1-1.1-0.2-2.1-0.5-3.2
		c-0.1-0.6-0.3-1.1-0.6-1.6c-0.4-0.6-0.9-0.7-1.5-0.2c0,0,0,0,0,0c-0.5,0.5-0.9,1.1-1.2,1.7c-0.6,1.4-1.1,2.9-1.5,4.4
		c-0.1,0.3-0.2,0.6-0.3,0.9c0,0-0.1,0.1-0.1,0.1c0,0-0.1-0.1-0.1-0.1c-0.1-1-0.2-1.9-0.4-2.9c-0.2-1.1-0.4-2.2-0.8-3.3
		c-0.1-0.4-0.3-0.8-0.6-1.2c-0.3-0.4-0.7-0.4-1-0.1c-0.2,0.2-0.3,0.4-0.5,0.6c-1.3,2.1-2.2,4.3-2.8,6.7c-0.4,1.5-0.7,3.1-0.8,4.7
		c-0.1,0.9-0.1,1.9-0.2,2.8c0,0.3,0,0.6,0.2,0.9c0.2,0.5,0.6,0.7,1.1,0.7c0.8,0,1.3-0.4,1.8-1c0.5-0.6,0.4-1.4-0.2-2
		c-0.1-0.1-0.2-0.2-0.3-0.4c-0.2-0.4-0.2-0.8-0.2-1.2c0-0.3,0.1-0.7,0.2-1c0.2-1.3,0.5-2.5,1-3.7c0-0.1,0.1-0.2,0.1-0.2
		c0.1-0.2,0.3-0.2,0.4,0c0,0.1,0.1,0.2,0.1,0.3c0.2,1,0.4,2.1,0.5,3.2c0.1,1.1,0.1,2.2,0.1,3.4c0,0.4,0,0.9-0.4,1.3
		c-0.2,0.2-0.1,0.5,0.1,0.7c0.2,0.2,0.4,0.3,0.7,0.4c0.4,0.1,0.9,0.1,1.3,0.2c0,0,0,0,0,0c0.3,0,0.6,0,0.9-0.1c0.3,0,0.7-0.1,1-0.3
		c0.5-0.3,0.5-0.8,0.2-1.2c-0.1-0.1-0.2-0.2-0.2-0.3c0-0.4-0.1-0.7,0-1.1c0.1-1.3,0.3-2.5,0.6-3.7c0.2-1,0.5-1.9,1-2.7
		c0-0.1,0.1-0.1,0.1-0.1c0.1-0.1,0.3-0.1,0.3,0.1c0,0.1,0,0.2,0,0.3c0,0.7,0.1,1.5,0.1,2.2c0.1,1.3,0.1,2.5,0.2,3.8
		c0,0.6,0.1,1.1,0.3,1.7c0.4,1,1.1,1.5,2.2,1.5c0.7,0,1.2-0.2,1.7-0.7c0.7-0.6,1.2-1.3,1.6-2.1c0.4-0.9,0.6-1.8,0.8-2.7
		c0.1-1,0.2-1.9,0.1-2.9C407.8,296.9,407.6,296.4,407.3,296z"/>
	<path d="M435.6,294.4c-0.5-0.7-1.1-0.9-1.9-0.6c-0.3,0.1-0.6,0.3-0.9,0.5c-0.1,0-0.1-0.1-0.1-0.2c0-0.2,0-0.3,0-0.5
		c0.1-0.8,0.1-1.6,0.2-2.5c0-0.3,0-0.5,0-0.8c0-0.4-0.3-0.7-0.7-0.7c-0.2,0-0.4,0-0.6,0.1c-0.7,0.2-1.3,0.6-1.8,1.1
		c-0.3,0.3-0.6,0.6-0.7,1c-0.1,0.4,0,0.6,0.4,0.8c0.3,0.1,0.4,0.2,0.3,0.6c0,0.4-0.1,0.7-0.1,1.1c-0.1,0.8-0.2,1.6-0.3,2.4
		c-0.1,0.9-0.2,1.7-0.3,2.6c-0.1,0.9-0.2,1.7-0.3,2.6c-0.1,0.7-0.1,1.3,0,2c0.1,0.5,0.2,1,0.5,1.4c0.6,0.6,1.3,0.8,2.2,0.7
		c0.8-0.1,1.4-0.5,2-1.1c0.7-0.7,1.2-1.6,1.6-2.6c0.4-1,0.6-2,0.8-3c0.2-1.1,0.3-2.1,0.1-3.2C436,295.4,435.9,294.9,435.6,294.4z
		 M432.8,302c-0.1,0.2-0.2,0.4-0.3,0.6c-0.1,0.1-0.2,0.2-0.4,0.2c-0.2,0-0.3-0.1-0.3-0.3c-0.1-0.3-0.1-0.7-0.1-1
		c0.1-0.9,0.1-1.7,0.3-2.6c0.1-0.5,0.3-1.1,0.4-1.6c0-0.2,0.1-0.3,0.2-0.5c0.2-0.3,0.6-0.2,0.7,0.1c0.1,0.2,0.1,0.5,0.1,0.8
		c0,0,0,0.1,0,0.1C433.3,299.2,433.2,300.6,432.8,302z"/>
	<path d="M451,302.9c0-0.2-0.1-0.4-0.3-0.4c-0.1,0-0.2-0.1-0.3-0.1c-0.2-0.1-0.3-0.2-0.3-0.4c0-0.1,0-0.2,0-0.3c0.1-1,0.3-2,0.4-3
		c0.1-1,0.3-2,0.4-3c0-0.4,0.1-0.8-0.1-1.1c-0.2-0.4-0.4-0.6-0.8-0.7c-0.4,0-0.7,0.1-1,0.3c-0.3,0.3-0.5,0.6-0.5,1
		c-0.1,0.5-0.1,1-0.2,1.5c-0.1,0.8-0.2,1.7-0.3,2.5c-0.1,0.6-0.2,1.3-0.2,1.9c-0.1,0.4-0.3,0.5-0.7,0.5c-0.3-0.1-0.4-0.3-0.4-0.7
		c0.1-0.7,0.2-1.5,0.3-2.2c0.1-0.8,0.2-1.7,0.3-2.5c0-0.5,0-1,0-1.4c0-0.3-0.1-0.5-0.3-0.7c-0.4-0.4-0.8-0.5-1.4-0.2
		c-0.7,0.3-1.1,0.8-1.5,1.5c-0.1,0.2-0.2,0.5-0.3,0.7c-0.1,0.4,0.1,0.7,0.4,0.8c0.3,0.1,0.3,0.2,0.3,0.5c0,0.2,0,0.5-0.1,0.7
		c-0.1,0.9-0.2,1.7-0.3,2.6c-0.1,1-0.2,2-0.3,2.9c0,0.4,0,0.9,0.2,1.3c0.3,0.6,0.8,0.8,1.4,0.7c0.5-0.1,0.8-0.3,1.2-0.6
		c0.2-0.2,0.3-0.4,0.5-0.6c0,0.1,0.1,0.1,0.1,0.2c0.2,0.5,0.5,0.8,0.9,1c0.2,0.1,0.4,0.2,0.6,0.1c0.2-0.1,0.3-0.1,0.5-0.2
		c0.7-0.5,1.3-1.1,1.7-1.8C450.9,303.5,451,303.2,451,302.9z"/>
	<path d="M427.8,302.2c-0.3-0.1-0.4-0.3-0.3-0.5c0.1-0.7,0.2-1.3,0.3-2c0.1-0.8,0.2-1.6,0.3-2.4c0.1-0.7,0.2-1.4,0.3-2.1
		c0.1-0.5-0.2-1-0.8-1.1c-0.4-0.1-0.8,0-1.2,0.2c-0.2,0.1-0.3,0.2-0.5,0.3c-0.1-0.1-0.1-0.2-0.2-0.3c-0.3-0.4-0.7-0.5-1.2-0.3
		c-0.2,0.1-0.3,0.2-0.5,0.3c-0.5,0.4-0.8,0.9-1.1,1.4c-0.6,1.1-1,2.3-1.3,3.5c-0.3,1.5-0.5,2.9-0.4,4.4c0.1,0.6,0.2,1.1,0.5,1.6
		c0.3,0.5,0.8,0.7,1.4,0.5c0.6-0.1,1-0.5,1.4-1c0.1-0.1,0.1-0.1,0.2-0.2c0.1,0.3,0.3,0.5,0.4,0.7c0.4,0.5,0.8,0.7,1.4,0.3
		c0.8-0.4,1.4-1.1,1.8-1.9c0.1-0.2,0.2-0.5,0.1-0.8C428.4,302.5,428.2,302.3,427.8,302.2z M425.1,301.5c-0.1,0.2-0.2,0.4-0.3,0.6
		c-0.1,0.2-0.2,0.3-0.4,0.2c-0.2,0-0.3-0.2-0.3-0.4c0-0.3-0.1-0.6,0-0.9c0.1-1.1,0.2-2.1,0.5-3.1c0.1-0.3,0.2-0.6,0.4-0.9
		c0.1-0.3,0.3-0.4,0.5-0.3c0.2,0.1,0.3,0.3,0.3,0.5c0,0.2,0,0.3,0,0.5L425.1,301.5z"/>
	<path d="M414.8,302.2c-0.3-0.1-0.4-0.3-0.3-0.6c0.1-0.9,0.2-1.8,0.4-2.7c0.1-0.9,0.2-1.8,0.4-2.7c0.1-0.4,0.1-0.8,0.1-1.2
		c0-0.4-0.2-0.8-0.6-0.9c-0.4-0.1-0.8-0.1-1.1,0.1c-0.2,0.1-0.4,0.3-0.7,0.4c-0.1-0.1-0.1-0.2-0.2-0.2c-0.3-0.4-0.8-0.5-1.3-0.3
		c-0.3,0.1-0.5,0.3-0.7,0.6c-0.5,0.5-0.8,1.1-1.1,1.7c-0.6,1.3-0.9,2.6-1.2,4c-0.2,1.1-0.3,2.3-0.1,3.4c0.1,0.5,0.2,1.1,0.5,1.5
		c0.3,0.5,0.8,0.7,1.3,0.5c0.6-0.1,1-0.5,1.4-0.9c0.1-0.1,0.1-0.2,0.2-0.3c0.2,0.3,0.3,0.6,0.5,0.8c0.4,0.5,0.8,0.6,1.3,0.3
		c0.5-0.2,0.9-0.6,1.2-1c0.3-0.3,0.6-0.7,0.7-1.2C415.6,302.8,415.4,302.4,414.8,302.2z M412.6,299.4c-0.1,0.7-0.2,1.5-0.5,2.2
		c-0.1,0.2-0.2,0.4-0.3,0.6c-0.1,0.1-0.2,0.2-0.4,0.2c-0.2,0-0.3-0.1-0.3-0.3c0-0.2-0.1-0.4-0.1-0.6c0.1-0.6,0.2-1.3,0.3-2
		c0.1-0.7,0.3-1.4,0.6-2c0.1-0.2,0.2-0.3,0.3-0.5c0.2-0.2,0.5-0.2,0.6,0.1c0.1,0.2,0.1,0.4,0.1,0.6
		C412.7,298.2,412.7,298.8,412.6,299.4z"/>
	<path d="M442.6,294.8c-0.6-0.9-1.5-1.3-2.5-1c-0.7,0.2-1.3,0.7-1.7,1.2c-0.8,0.9-1.2,2-1.5,3.2c-0.3,1.5-0.4,3-0.3,4.5
		c0.1,0.7,0.2,1.3,0.5,1.9c0.5,0.8,1.2,1.3,2.1,1.3c0.8,0,1.5-0.4,2.1-1c0.7-0.7,1.1-1.6,1.4-2.5c0.4-1.3,0.6-2.7,0.6-4.3
		c0-0.3,0-0.8-0.1-1.3C443.2,296.1,443,295.4,442.6,294.8z M440.5,300.9c-0.1,0.5-0.3,1-0.4,1.5c0,0.1-0.1,0.2-0.2,0.3
		c-0.2,0.2-0.5,0.2-0.6-0.1c-0.1-0.2-0.1-0.4-0.1-0.6c0-0.2,0-0.3,0-0.5c0.1-1.3,0.2-2.5,0.5-3.8c0.1-0.3,0.2-0.6,0.3-0.8
		c0.1-0.2,0.2-0.3,0.4-0.3c0.2,0,0.3,0.2,0.4,0.4c0.1,0.4,0.1,0.7,0.1,1.1"/>
	<path d="M421.7,295.3c0-0.3-0.1-0.7-0.3-1c-0.1-0.2-0.3-0.4-0.5-0.4c-0.4-0.1-0.9-0.1-1.2,0.2c-0.2,0.1-0.3,0.3-0.4,0.5
		c-0.1-0.1-0.1-0.2-0.2-0.4c-0.3-0.4-0.6-0.5-1.1-0.3c-0.1,0.1-0.2,0.1-0.4,0.2c-0.6,0.5-1.2,1.1-1.5,1.8c-0.3,0.6-0.2,0.9,0.4,1.1
		c0.2,0.1,0.3,0.3,0.3,0.5c0,0.5-0.1,0.9-0.2,1.4c-0.1,0.8-0.2,1.6-0.3,2.4c-0.1,0.7-0.2,1.4-0.2,2.1c0,0.4-0.1,0.9,0,1.3
		c0.1,0.8,0.7,1.2,1.5,0.9c0.6-0.2,0.9-0.7,1-1.3c0.1-0.5,0.1-0.9,0.2-1.4c0.1-1.1,0.3-2.1,0.4-3.2c0-0.3,0.1-0.6,0.1-0.9
		c0.1,0.1,0.1,0.1,0.2,0.1c0.2,0.1,0.4,0.3,0.6,0.3c0.3,0,0.6-0.1,0.8-0.4c0.2-0.3,0.4-0.6,0.5-0.9
		C421.7,297.1,421.8,296.2,421.7,295.3z"/>
</g>
</svg>
