<?xml version="1.0" encoding="utf-8"?>
<!-- Generator: Adobe Illustrator 23.0.1, SVG Export Plug-In . SVG Version: 6.00 Build 0)  -->
<svg version="1.1" id="Lager_1" xmlns="http://www.w3.org/2000/svg" xmlns:xlink="http://www.w3.org/1999/xlink" x="0px" y="0px"
	 viewBox="0 0 841.9 595.3" style="enable-background:new 0 0 841.9 595.3;" xml:space="preserve">
<style type="text/css">
	.st0{fill:none;}
	.st1{fill:#1D1D1B;}
</style>
<g>
	<path class="st0" d="M426.6,300.4c-0.1,0.1-0.2,0.1-0.3,0.2c-0.1,0-0.2,0.1-0.3,0.1c-0.2,0-0.3-0.1-0.3-0.2c0-0.1,0-0.2,0-0.3
		l0-3.2c0-0.6-0.3-1.1-0.9-1.4c-0.2-0.1-0.5-0.2-0.7-0.3c-0.6-0.1-1.2-0.1-1.8-0.1c-0.7,0.1-1.4,0.3-2.1,0.7c-0.1,0-0.1,0.1-0.1,0.2
		c0,0.5,0,1,0,1.4c0,0,0,0.1,0,0.1c0,0,0.1-0.1,0.1-0.1c0.4-0.3,0.8-0.6,1.2-0.8c0.4-0.2,0.9-0.2,1.3-0.2c0.7,0.1,1,0.6,0.9,1.1
		c-0.1,0-0.1,0-0.2,0.1c-0.4,0.1-0.9,0.3-1.3,0.4c-0.5,0.2-1,0.4-1.5,0.6c-0.6,0.3-0.9,0.8-0.9,1.5c0,0.5,0.1,0.8,0.4,1.2
		c0.5,0.5,1,0.6,1.7,0.6c0.6-0.1,1.2-0.3,1.7-0.6c0.1,0,0.1-0.1,0.2-0.1c0,0,0,0,0,0c0,0,0,0,0,0.1c0.1,0.4,0.4,0.6,0.8,0.6
		c0.4,0.1,0.8,0,1.2-0.1c0.4-0.1,0.7-0.2,1-0.4c0.1,0,0.1-0.1,0.1-0.1c0-0.4,0-0.7,0-1.1C426.7,300.4,426.7,300.4,426.6,300.4z
		 M423.5,300.2c0,0.1,0,0.2-0.1,0.3c-0.3,0.2-0.6,0.4-1,0.4c-0.3,0-0.7-0.3-0.7-0.7c0-0.3,0.1-0.5,0.3-0.6c0.1-0.1,0.3-0.2,0.4-0.3
		c0.3-0.1,0.6-0.3,0.9-0.4c0,0,0.1,0,0.1,0c0,0.1,0,0.1,0,0.2C423.5,299.4,423.5,299.8,423.5,300.2z"/>
	<path class="st0" d="M430.3,297.1c0.1-0.1,0.2-0.2,0.4-0.3c0.6-0.4,1.3-0.1,1.5,0.6c0,0.2,0.1,0.4,0.1,0.6c0,1.3,0,2.5,0,3.8
		c0,0.1,0,0.1,0,0.2c0.7,0,1.4,0,2.1,0c0-0.1,0-0.2,0-0.2c0-1.3,0-2.6,0-3.9c0-0.2,0-0.4,0-0.6c-0.1-0.7-0.4-1.3-1-1.7
		c-0.8-0.4-1.6-0.5-2.4-0.1c-0.3,0.1-0.6,0.4-0.9,0.7c0,0-0.1,0.1-0.2,0.1c0-0.3,0-0.6,0-0.9c-0.3,0-1.9,0-2.1,0c0,2.2,0,4.4,0,6.6
		c0.2,0,1.9,0,2.1,0c0-0.1,0-0.1,0-0.2c0-1.3,0-2.5,0-3.8c0-0.1,0-0.3,0.1-0.4C430.1,297.4,430.2,297.2,430.3,297.1z"/>
	<path class="st0" d="M440.5,296.3c-0.5-0.7-1-1.3-1.7-1.8c-0.9-0.7-1.8-1.2-2.8-1.7c-1.7-0.8-3.4-1.4-5.2-1.8
		c-1.2-0.3-2.4-0.5-3.6-0.7c-0.3,0-0.7-0.1-1-0.1c-0.1,0-0.2,0-0.2,0.1c0.1,0,0.2,0.1,0.3,0.1c0.9,0.1,1.8,0.3,2.7,0.6
		c1.7,0.5,3.4,1,4.9,1.9c1.1,0.6,2.2,1.3,3.1,2.2c0.6,0.6,1.1,1.3,1.4,2.1c0.3,0.8,0.4,1.6,0.2,2.5c-0.1,0.6-0.4,1.2-0.8,1.8
		c-0.4,0.7-1,1.2-1.6,1.7c-0.9,0.7-1.9,1.3-3,1.8c-1.9,0.9-3.8,1.4-5.9,1.9c-2.1,0.4-4.2,0.6-6.3,0.7c-2,0.1-4,0-6-0.3
		c-1.4-0.2-2.8-0.4-4.2-0.8c-1.6-0.4-3.2-1-4.8-1.7c-1-0.5-2-1.1-2.8-1.8c-0.6-0.6-1.2-1.2-1.6-2c-0.5-0.9-0.6-1.9-0.4-2.9
		c0.1-0.7,0.5-1.3,0.9-1.9c0.5-0.6,1-1.2,1.6-1.7c0.9-0.7,1.9-1.3,3-1.8c1.9-0.9,3.8-1.4,5.8-1.8c0.1,0,0.2,0,0.3-0.1
		c0.2,0.3,0.4,0.4,0.6,0.5c0.3,0.1,0.6,0.2,0.9,0.3c0.9,0.2,1.8,0.3,2.7,0.3c0.8,0,1.6-0.1,2.4-0.1c0.7-0.1,1.5-0.1,2.2-0.2
		c0.8-0.1,1.5-0.2,2.3-0.3c0.2,0,0.4-0.2,0.4-0.5c-0.1,0-0.1,0-0.2,0c-0.4,0-0.9,0-1.3,0.1c-1.4,0.1-2.7,0.2-4.1,0.2
		c-0.4,0-0.9,0-1.3,0c-0.2,0-0.3,0-0.5-0.1l0.2-0.4c0,0,0,0,0,0l0.1-0.1l0.5-1.4c0,0,0.1,0,0.2-0.1c0.1,0,0.2-0.1,0.4-0.1
		c0.5,0,1-0.1,1.5-0.1c0.9,0,1.8,0,2.7,0c0.6,0,1.1,0.1,1.7,0.1c0.4,0,0.7,0.1,1.1,0.1c0.1,0,0.1,0,0.2,0c0.1-0.1,0.1-0.2,0.1-0.4
		c-0.1,0-0.1,0-0.2,0c-1.3-0.2-2.7-0.4-4-0.5c-1.1-0.1-2.2-0.1-3.3,0c-1,0.1-1.9,0.2-2.8,0.5c-0.6,0.2-1.1,0.4-1.7,0.7
		c-0.2,0.2-0.5,0.3-0.6,0.6c-0.1,0.1-0.1,0.1-0.2,0.1c-1.5,0.2-2.9,0.5-4.3,0.9c-1.6,0.5-3.2,1-4.8,1.8c-1.1,0.5-2,1.2-2.9,2
		c-0.5,0.5-1,1-1.3,1.6c-0.4,0.6-0.6,1.3-0.7,2.1c-0.1,0.8,0.1,1.5,0.5,2.2c0.4,0.7,0.8,1.3,1.4,1.9c0.7,0.7,1.5,1.2,2.4,1.7
		c1.4,0.8,3,1.5,4.6,2c2.9,0.9,5.9,1.4,8.9,1.6c0.9,0.1,1.9,0.1,2.8,0.1c1.6,0,3.2,0,4.8-0.2c1.2-0.1,2.3-0.2,3.5-0.4
		c1.5-0.3,3.1-0.6,4.6-1.1c1.6-0.5,3.2-1.1,4.7-1.9c0.9-0.5,1.8-1.1,2.5-1.8c0.6-0.6,1.1-1.2,1.5-2c0.4-0.8,0.6-1.7,0.4-2.6
		C441.1,297.5,440.9,296.9,440.5,296.3z"/>
	<path class="st0" d="M418,290.4l6.2-0.3c-1.3,0-2.6,0-3.9,0.1C419.6,290.2,418.8,290.3,418,290.4z"/>
	<path class="st1" d="M442.8,292.1c0,2.2,0,4.5,0,6.7c0,2.3,0,4.6,0,6.8c0-2.3,0-4.6,0-6.8C442.8,296.6,442.8,294.3,442.8,292.1z"/>
	<path class="st1" d="M442.8,292.1c0-0.1,0-0.2,0-0.3c0-0.9-0.7-1.6-1.6-1.8c-0.2,0-0.4-0.1-0.5-0.1c-1-0.2-2-0.3-3.1-0.5
		c-1-0.2-2-0.3-3-0.5c-1-0.2-2-0.3-3-0.5c-1-0.2-2-0.3-3-0.5c-0.9-0.2-1.9-0.3-2.8-0.5c-1-0.2-2-0.3-3.1-0.5
		c-0.7-0.1-1.5-0.2-2.2-0.3c-0.6,0-1.2,0-1.9,0.1c-0.8,0.1-1.6,0.3-2.5,0.4c-1.8,0.3-3.7,0.6-5.5,0.9c-1.8,0.3-3.7,0.6-5.5,0.9
		c-2,0.3-4,0.7-6,1c-0.2,0-0.5,0.1-0.7,0.3c-0.6,0.4-0.9,1-0.9,1.7c0,4.2,0,8.3,0,12.5c0,0.4,0,0.8,0,1.2c0,0.9,0.7,1.8,1.6,1.9
		c0.6,0.1,1.2,0.2,1.9,0.3c1,0.2,2,0.3,3.1,0.5c1.1,0.2,2.2,0.4,3.3,0.5c1.2,0.2,2.3,0.4,3.5,0.6c1.1,0.2,2.2,0.4,3.2,0.5
		c1,0.2,2,0.3,3.1,0.5c0.8,0.1,1.6,0.3,2.4,0.3c0.7,0,1.4,0,2.1-0.1c0.8-0.1,1.7-0.3,2.5-0.4c1.3-0.2,2.6-0.4,4-0.7
		c1.4-0.2,2.8-0.5,4.2-0.7c1.5-0.2,2.9-0.5,4.4-0.7c1.5-0.2,2.9-0.5,4.4-0.7c0.2,0,0.5-0.1,0.7-0.2c0.8-0.4,1.2-1,1.2-1.8
		c0-2.3,0-4.6,0-6.8C442.8,296.6,442.8,294.3,442.8,292.1z M426.8,301.4c0,0.1-0.1,0.1-0.1,0.1c-0.3,0.2-0.7,0.3-1,0.4
		c-0.4,0.1-0.8,0.2-1.2,0.1c-0.4-0.1-0.7-0.2-0.8-0.6c0,0,0,0,0-0.1c0,0,0,0,0,0c-0.1,0-0.1,0.1-0.2,0.1c-0.5,0.3-1.1,0.5-1.7,0.6
		c-0.7,0.1-1.2-0.1-1.7-0.6c-0.3-0.3-0.5-0.7-0.4-1.2c0-0.7,0.3-1.2,0.9-1.5c0.5-0.3,1-0.5,1.5-0.6c0.4-0.1,0.9-0.3,1.3-0.4
		c0.1,0,0.1,0,0.2-0.1c0.1-0.5-0.2-1-0.9-1.1c-0.5,0-0.9,0-1.3,0.2c-0.5,0.2-0.9,0.4-1.2,0.8c0,0-0.1,0.1-0.1,0.1c0,0,0-0.1,0-0.1
		c0-0.5,0-1,0-1.4c0-0.1,0-0.2,0.1-0.2c0.7-0.4,1.3-0.6,2.1-0.7c0.6-0.1,1.2-0.1,1.8,0.1c0.3,0.1,0.5,0.1,0.7,0.3
		c0.6,0.3,0.8,0.8,0.9,1.4c0,0.2,0,0.3,0,0.5c0,0.9,0,1.8,0,2.7c0,0.1,0,0.2,0,0.3c0,0.2,0.1,0.3,0.3,0.2c0.1,0,0.2,0,0.3-0.1
		c0.1-0.1,0.2-0.1,0.3-0.2c0,0,0.1-0.1,0.2-0.1C426.8,300.7,426.8,301.1,426.8,301.4z M440.9,300.8c-0.4,0.8-0.9,1.4-1.5,2
		c-0.8,0.7-1.6,1.3-2.5,1.8c-1.5,0.8-3,1.4-4.7,1.9c-1.5,0.5-3,0.8-4.6,1.1c-1.1,0.2-2.3,0.3-3.5,0.4c-1.6,0.1-3.2,0.2-4.8,0.2
		c-0.9,0-1.9-0.1-2.8-0.1c-3-0.2-6-0.7-8.9-1.6c-1.6-0.5-3.1-1.1-4.6-2c-0.8-0.5-1.6-1.1-2.4-1.7c-0.6-0.5-1-1.2-1.4-1.9
		c-0.3-0.7-0.5-1.4-0.5-2.2c0.1-0.7,0.3-1.4,0.7-2.1c0.4-0.6,0.8-1.1,1.3-1.6c0.9-0.8,1.9-1.4,2.9-2c1.5-0.8,3.1-1.4,4.8-1.8
		c1.4-0.4,2.9-0.7,4.3-0.9c0.1,0,0.2-0.1,0.2-0.1c0.2-0.2,0.4-0.4,0.6-0.6c0.5-0.3,1.1-0.5,1.7-0.7c0.9-0.3,1.9-0.4,2.8-0.5
		c1.1-0.1,2.2-0.1,3.3,0c1.4,0.1,2.7,0.2,4,0.5c0.1,0,0.1,0,0.2,0c0,0.1-0.1,0.3-0.1,0.4c0,0-0.1,0-0.2,0c-0.4,0-0.7-0.1-1.1-0.1
		c-0.6,0-1.1-0.1-1.7-0.1c-0.9,0-1.8,0-2.7,0c-0.5,0-1,0.1-1.5,0.1c-0.1,0-0.2,0-0.4,0.1c-0.1,0-0.1,0-0.2,0.1l-0.5,1.4l0.6-1
		c0.2,0,0.4,0.1,0.6,0.1c0.9,0,1.8,0.1,2.7,0.1c1.2,0,2.4,0.1,3.7,0.1c0.1,0,0.2,0,0.3,0c0,0.2-0.1,0.3-0.2,0.4c0,0-0.1,0-0.2,0
		c-0.3,0-0.5,0-0.8,0l-6.2,0.3c-0.2,0-0.4,0.1-0.5,0.1l-0.2,0.4c0.2,0,0.3,0.1,0.5,0.1c0.4,0,0.9,0,1.3,0c1.4,0,2.7-0.1,4.1-0.2
		c0.4,0,0.9-0.1,1.3-0.1c0.1,0,0.1,0,0.2,0c0,0.3-0.2,0.5-0.4,0.5c-0.8,0.1-1.5,0.2-2.3,0.3c-0.7,0.1-1.5,0.2-2.2,0.2
		c-0.8,0.1-1.6,0.1-2.4,0.1c-0.9,0-1.8,0-2.7-0.3c-0.3-0.1-0.6-0.2-0.9-0.3c-0.3-0.1-0.5-0.3-0.6-0.5c-0.1,0-0.2,0-0.3,0.1
		c-2,0.4-4,1-5.8,1.8c-1.1,0.5-2.1,1.1-3,1.8c-0.6,0.5-1.2,1-1.6,1.7c-0.4,0.6-0.7,1.2-0.9,1.9c-0.2,1-0.1,2,0.4,2.9
		c0.4,0.8,1,1.4,1.6,2c0.8,0.7,1.8,1.3,2.8,1.8c1.5,0.8,3.1,1.3,4.8,1.7c1.4,0.4,2.8,0.6,4.2,0.8c2,0.2,4,0.3,6,0.3
		c2.1-0.1,4.2-0.3,6.3-0.7c2-0.4,4-1,5.9-1.9c1.1-0.5,2.1-1.1,3-1.8c0.6-0.5,1.2-1.1,1.6-1.7c0.4-0.5,0.6-1.1,0.8-1.8
		c0.2-0.8,0.1-1.7-0.2-2.5c-0.3-0.8-0.8-1.5-1.4-2.1c-0.9-0.9-2-1.6-3.1-2.2c-1.6-0.8-3.2-1.4-4.9-1.9c-0.9-0.2-1.8-0.4-2.7-0.6
		c-0.1,0-0.2,0-0.3-0.1c0.1-0.1,0.2-0.1,0.2-0.1c0.3,0,0.7,0.1,1,0.1c1.2,0.2,2.4,0.4,3.6,0.7c1.8,0.4,3.5,1,5.2,1.8
		c1,0.5,1.9,1,2.8,1.7c0.7,0.5,1.2,1.1,1.7,1.8c0.4,0.6,0.6,1.2,0.7,1.8C441.4,299.1,441.3,299.9,440.9,300.8z M414.4,299.2
		c0.2,0.8,0.8,1.3,1.6,1.4c0.5,0,0.9,0,1.4-0.2c0.2-0.1,0.4-0.1,0.6-0.2c0.1,0,0.1,0,0.2-0.1c0,0.5,0,1,0,1.5
		c-0.4,0.2-0.9,0.3-1.3,0.4c-0.8,0.1-1.6,0.1-2.4-0.1c-0.8-0.3-1.5-0.8-1.9-1.5c-0.2-0.4-0.3-0.8-0.4-1.2c-0.1-0.6,0-1.2,0.2-1.8
		c0.4-1,1.2-1.7,2.3-2c0.7-0.2,1.5-0.2,2.2-0.1c0.3,0.1,0.6,0.2,1,0.2c0.1,0,0.2,0.1,0.3,0.1c0,0.5,0,1,0,1.6
		c-0.1,0-0.1-0.1-0.2-0.1c-0.6-0.3-1.1-0.4-1.8-0.3c-0.3,0-0.5,0.1-0.8,0.2c-0.6,0.3-0.9,0.8-1,1.4
		C414.3,298.7,414.3,298.9,414.4,299.2z M408,296.5c-0.1,0-0.1,0.1-0.2,0.1c-0.2,0.2-0.2,0.4,0,0.6c0.1,0.1,0.3,0.2,0.4,0.2
		c0.3,0.1,0.6,0.2,0.9,0.4c0.3,0.1,0.6,0.3,0.9,0.5c0.4,0.3,0.7,0.6,0.8,1.1c0.2,0.8,0,2-1.3,2.5c-0.4,0.1-0.8,0.2-1.2,0.2
		c-0.8,0-1.6-0.1-2.3-0.4c-0.1,0-0.1-0.1-0.2-0.1c0-0.5,0-1,0-1.5c0.1,0,0.1,0.1,0.2,0.1c0.4,0.2,0.9,0.3,1.3,0.4
		c0.3,0.1,0.7,0.1,1,0c0.1,0,0.3-0.1,0.4-0.1c0.2-0.1,0.2-0.4,0.1-0.6c-0.1-0.1-0.2-0.2-0.3-0.2c-0.2-0.1-0.4-0.2-0.6-0.3
		c-0.3-0.1-0.6-0.3-0.9-0.4c-0.2-0.1-0.4-0.2-0.6-0.4c-1-0.7-0.9-2.2,0-2.8c0.4-0.3,0.9-0.5,1.4-0.6c0.9-0.1,1.8,0,2.7,0.3
		c0.1,0.1,0.2,0.1,0.2,0.3c0,0.4,0,0.7,0,1.1c0,0.1,0,0.1,0,0.2c-0.1,0-0.2-0.1-0.2-0.1 M429.8,301.7c0,0.1,0,0.1,0,0.2
		c-0.1,0-1.9,0.1-2.1,0c0-2.2,0-4.4,0-6.6c0.1,0,1.8-0.1,2.1,0c0,0.3,0,0.6,0,0.9c0.1,0,0.1-0.1,0.2-0.1c0.3-0.3,0.5-0.5,0.9-0.7
		c0.8-0.4,1.7-0.3,2.4,0.1c0.6,0.4,0.9,1,1,1.7c0,0.2,0,0.4,0,0.6c0,1.3,0,2.6,0,3.9c0,0.1,0,0.1,0,0.2c-0.7,0-1.4,0-2.1,0
		c0-0.1,0-0.1,0-0.2c0-1.3,0-2.5,0-3.8c0-0.2,0-0.4-0.1-0.6c-0.2-0.7-0.9-1-1.5-0.6c-0.1,0.1-0.3,0.2-0.4,0.3
		c-0.1,0.1-0.3,0.3-0.4,0.5c-0.1,0.1-0.1,0.2-0.1,0.4C429.8,299.2,429.8,300.4,429.8,301.7z"/>
	<path class="st1" d="M414.6,295.4l2.2-0.1C416.1,295.2,415.4,295.1,414.6,295.4z"/>
	<path class="st1" d="M425.6,297.5c0-0.2,0-0.3,0-0.5l0,3.2C425.6,299.3,425.6,298.4,425.6,297.5z"/>
	<path class="st1" d="M417.5,290.6l0-0.1L417.5,290.6C417.5,290.6,417.5,290.6,417.5,290.6z"/>
	<path class="st1" d="M423.4,298.8c-0.3,0.1-0.6,0.2-0.9,0.4c-0.2,0.1-0.3,0.2-0.4,0.3c-0.2,0.2-0.3,0.4-0.3,0.6
		c0,0.5,0.4,0.8,0.7,0.7c0.4,0,0.7-0.2,1-0.4c0.1-0.1,0.1-0.1,0.1-0.3c0-0.4,0-0.8,0-1.3C423.5,298.9,423.5,298.9,423.4,298.8
		C423.5,298.8,423.5,298.8,423.4,298.8z"/>
</g>
</svg>
