<?xml version="1.0" encoding="utf-8"?>
<!-- Generator: Adobe Illustrator 25.0.1, SVG Export Plug-In . SVG Version: 6.00 Build 0)  -->
<svg version="1.1" id="Lager_1" xmlns="http://www.w3.org/2000/svg" xmlns:xlink="http://www.w3.org/1999/xlink" x="0px" y="0px"
	 viewBox="0 0 237 177" style="enable-background:new 0 0 237 177;" xml:space="preserve">
<g>
	<g>
		<path d="M66.3,39.53c1.5,0.25,3.01,0.46,4.5,0.77c4.39,0.93,8.27,2.79,11.53,5.99c2.71,2.65,3.16,5.6,1.97,9.02
			c-1.35,3.89-3.78,7.07-6.56,10.01c-5.62,5.91-12.23,10.52-19.32,14.46c-9.29,5.15-18.97,9.39-29.28,12.09
			c-3.71,0.97-7.47,1.66-11.31,1.75c-3.54,0.08-7.03-0.26-10.13-2.24c-1.49-0.96-2.67-2.16-3.02-4.01c-0.31-1.66-0.7-3.31-1.06-4.97
			C3.59,82.26,3.5,82.13,3.44,82c0-1.7,0-3.4,0-5.1c0.35-1.38,0.63-2.78,1.05-4.14c2.01-6.52,6.05-11.68,11.17-16.01
			C26.92,47.22,40.12,42.14,54.6,40.1c1.51-0.21,3.02-0.38,4.53-0.57C61.51,39.53,63.91,39.53,66.3,39.53z"/>
		<path d="M8.72,96.91c2.53,2.22,5.48,3.56,8.81,3.84c2.4,0.2,4.88,0.37,7.23-0.01C42.22,97.92,57.75,90.6,71.8,80.04
			c4.88-3.67,9.11-8.01,12.32-13.27c1.44-2.37,2.54-4.88,3.11-7.63c0.03,0.19,0.07,0.38,0.07,0.56c0.11,7.17-0.52,14.29-2.43,21.19
			c-0.71,2.56-2.32,4.94-3.85,7.17c-4.43,6.46-10.35,11.37-16.94,15.47c-7.16,4.45-14.62,8.28-22.78,10.6
			c-3.86,1.1-7.79,1.69-11.81,1.44c-4.23-0.26-8.05-1.7-11.25-4.48c-1.21-1.06-2.18-2.45-3.09-3.79c-2.01-2.96-3.93-5.98-5.86-9
			c-0.27-0.42-0.38-0.95-0.57-1.42L8.72,96.91z"/>
		<path d="M220.81,105.16c-0.14,0.3-0.23,0.51-0.33,0.73c-1.13,2.45-3.04,3.46-5.73,3.44c-7.66-0.08-14.19-5.03-16.21-12.42
			c-2.91-10.69,4.98-21.44,16.03-21.83c2.51-0.09,4.86,0.53,7.06,1.71c0.56,0.3,0.96,0.35,1.54,0c1.31-0.81,2.76-1.19,4.32-1.05
			c1.26,0.12,1.89,0.73,1.92,2c0.04,2.04,0.02,4.09,0.02,6.13c0,6.1-0.02,12.2,0.01,18.3c0.01,1.82-0.38,3.5-1.37,5.01
			c-0.36,0.54-0.8,1.06-1.3,1.47c-1.25,1.04-2.44,1-3.63-0.11c-0.5-0.47-0.94-1.02-1.33-1.58
			C221.44,106.41,221.17,105.81,220.81,105.16z M220.83,92.1c0-2.04-0.09-4.09,0.03-6.12c0.07-1.18-0.4-1.68-1.42-2.03
			c-3.36-1.13-6.6-1.22-9.57,1.05c-2.89,2.21-3.78,5.26-3.27,8.72c0.89,6.08,7.72,9.5,13.67,6.13c0.29-0.16,0.52-0.69,0.52-1.05
			C220.85,96.56,220.83,94.33,220.83,92.1z"/>
		<path d="M140.12,95.58c1.02,4.59,5.4,7.53,10.12,6.69c1.98-0.35,3.86-1.23,5.81-1.82c1.16-0.35,2.33-0.75,3.52-0.86
			c1.37-0.13,2.07,0.63,2.01,1.99c-0.11,2.61-1.05,4.76-3.55,5.98c-5.53,2.7-11.18,3.45-16.83,0.5
			c-12.01-6.26-12.78-23.38-1.44-30.66c7.18-4.61,16.93-2.83,21.48,3.93c1.96,2.92,2.9,6.13,2.43,9.64
			c-0.14,1.01-0.67,2.01-1.18,2.93c-0.52,0.93-1.4,1.35-2.52,1.36c-6.29,0.08-12.57,0.2-18.86,0.31
			C140.81,95.58,140.5,95.58,140.12,95.58z M155.51,88.95c0.2-3.44-3.1-6.51-7.13-6.66c-4.2-0.16-8.18,3.06-8.21,6.66
			C145.28,88.95,150.4,88.95,155.51,88.95z"/>
		<path d="M124.5,72.41c0,0.49,0,0.86,0,1.23c0,9.37-0.01,18.75,0.01,28.12c0,2.21-0.5,4.24-1.86,6c-1.61,2.09-3.43,2.17-5.22,0.23
			c-1.34-1.45-2.1-3.09-2.09-5.17c0.07-9.75,0.03-19.5,0.03-29.25c0-0.34,0-0.69,0-1.16c-0.35,0-0.65,0-0.95,0
			c-2.52,0-5.03-0.03-7.55,0.01c-1.09,0.02-2.02-0.31-2.67-1.13c-0.75-0.95-1.43-1.97-2.02-3.03c-0.58-1.05-0.32-2.08,0.49-2.95
			c1.44-1.56,3.24-2.36,5.35-2.39c3.37-0.03,6.73-0.01,10.1-0.01c5.6,0,11.2,0,16.8,0c2.37,0,3.19,0.94,2.87,3.28
			c-0.25,1.84-0.86,3.53-2.11,4.95c-0.74,0.85-1.63,1.3-2.8,1.28C130.13,72.37,127.4,72.41,124.5,72.41z"/>
		<path d="M24.1,116.79c5.1,2.77,10.54,2.81,15.94,1.51c14.07-3.4,26.39-10.03,36.35-20.68c1.73-1.85,3.14-4,4.69-6.02
			c0.2-0.26,0.37-0.54,0.75-0.71c-0.2,0.55-0.39,1.1-0.61,1.64c-3.88,9.59-9.22,18.21-16.78,25.36c-3.85,3.63-8.11,6.65-13.14,8.47
			c-4.71,1.71-9.36,1.53-13.98-0.37c-5.07-2.08-9.42-5.24-13.35-9.02C24.01,116.91,24.05,116.85,24.1,116.79z"/>
		<path d="M168.48,84.26c0-5.66,0.03-11.32-0.02-16.97c-0.01-1.45,0.58-2.44,1.71-3.25c1.54-1.1,3.21-1.69,5.12-1.51
			c1.22,0.12,1.8,0.7,1.94,1.91c0.04,0.37,0.03,0.75,0.03,1.13c0,10.84,0.01,21.69-0.02,32.53c0,1.37,0.38,2.32,1.72,2.92
			c0.45,0.2,0.9,0.92,0.95,1.45c0.22,2.24-0.57,4.19-2.08,5.85c-1.03,1.14-2.32,1.1-3.66,0.75c-3.48-0.92-5.67-3.91-5.68-7.84
			C168.47,95.58,168.48,89.92,168.48,84.26z"/>
		<path d="M193.57,90.58c0,3.87-0.03,7.74,0.01,11.61c0.02,1.92-0.46,3.67-1.53,5.25c-1.57,2.32-3.74,2.41-5.49,0.25
			c-1.14-1.41-1.76-2.94-1.74-4.83c0.07-7.49,0.05-14.97,0.01-22.46c-0.01-1.26,0.45-2.18,1.4-2.93c1.48-1.17,3.13-1.84,5.05-1.77
			c1.63,0.06,2.28,0.69,2.29,2.32C193.58,82.21,193.57,86.39,193.57,90.58z"/>
		<path d="M194.08,64.58c-0.12,1.92-0.8,4.07-2.56,5.74c-1.56,1.48-3.17,1.53-4.61-0.06c-0.93-1.03-1.63-2.29-2.3-3.51
			c-0.56-1.01-0.29-2.06,0.51-2.86c1.85-1.85,4.11-2.75,6.72-2.6C193.47,61.38,194.11,62.28,194.08,64.58z"/>
		<path d="M23.97,116.98c-0.1-0.04-0.2-0.08-0.3-0.12c0.01-0.04,0.02-0.07,0.02-0.11c0.13,0.02,0.27,0.03,0.4,0.05
			C24.05,116.85,24.01,116.91,23.97,116.98z"/>
		<path d="M81.87,90.66c-0.02-0.01-0.04-0.02-0.06-0.03c0.02-0.03,0.04-0.06,0.06-0.09c0.02,0.02,0.05,0.04,0.05,0.06
			C81.93,90.63,81.89,90.64,81.87,90.66z"/>
		<path d="M8.73,96.9c-0.05,0-0.09,0.01-0.14,0.01c0.01-0.04,0.02-0.08,0.03-0.12c0.03,0.04,0.06,0.08,0.1,0.12
			C8.72,96.91,8.73,96.9,8.73,96.9z"/>
	</g>
</g>
</svg>
