<?xml version="1.0" encoding="utf-8"?>
<!-- Generator: Adobe Illustrator 25.0.1, SVG Export Plug-In . SVG Version: 6.00 Build 0)  -->
<svg version="1.1" id="Lager_1" xmlns="http://www.w3.org/2000/svg" xmlns:xlink="http://www.w3.org/1999/xlink" x="0px" y="0px"
	 viewBox="0 0 237 177" style="enable-background:new 0 0 237 177;" xml:space="preserve">
<style type="text/css">
	.st0{fill:#020202;}
	.st1{fill:#6B6B6B;}
	.st2{fill:#999999;}
	.st3{fill:#7E7E7E;}
	.st4{fill:#D9D9D9;}
</style>
<g>
	<g>
		<path class="st0" d="M198.48,45.39c2.97-0.02,5.95-0.01,8.92-0.07c1.1-0.02,0.83,0.72,0.83,1.3c-0.08,7.63-1.05,15.16-3.14,22.5
			c-7.29,25.56-22.81,44.46-46.27,56.88c-0.37,0.2-0.77,0.34-1.16,0.51c-0.85-1.96-1.75-3.89-3.06-5.6
			c-0.12-0.27-0.21-0.56-0.37-0.8c-9.73-13.99-23.13-20.64-40.13-19.49c-10.32,0.7-19.23,4.97-26.64,12.22
			c-2.46,2.41-4.76,4.96-6.35,8.06c-1.33,1.7-2.18,3.65-3.05,5.59c-6.3-2.94-12.09-6.72-17.43-11.15
			c-16.49-13.7-27-31.03-31.38-52.04c-1.15-5.54-1.7-11.15-1.78-16.81c-0.01-0.84,0.16-1.2,1.1-1.18c2.89,0.08,5.77,0.06,8.66,0.08
			c0.01,3.92,0.03,7.83,0.04,11.75c-0.01,3.18-0.04,6.37-0.02,9.55c0.01,1.32,0.21,2.62,0.48,3.91c1.74,8.08,9.42,14.03,17.85,13.82
			c8.49-0.21,15.9-6.57,17.12-14.83c0.61-4.13,0.2-8.3,0.22-12.46c0.01-3.91,0.03-7.82,0.04-11.73c2.03-0.14,4.07-0.11,6.1-0.02
			c0.02,3.92,0.03,7.84,0.05,11.75c0.03,3.99-0.31,7.99,0.19,11.96c1.08,8.55,8.66,15.19,17.39,15.3
			c8.82,0.11,16.6-6.35,17.84-14.93c0.59-4.09,0.21-8.23,0.23-12.34c0.01-3.91,0.03-7.82,0.04-11.74c2.03-0.12,4.07-0.12,6.1,0
			c0.01,3.91,0.02,7.82,0.03,11.73c0.02,4.12-0.35,8.25,0.23,12.35c1.21,8.51,8.94,14.99,17.72,14.94
			c8.74-0.05,16.41-6.66,17.51-15.18c0.52-4.02,0.17-8.06,0.2-12.1c0.01-3.92,0.03-7.83,0.04-11.75c2.04-0.1,4.07-0.12,6.11,0.01
			c0.01,3.91,0.02,7.82,0.03,11.73c0.01,4.2-0.42,8.42,0.24,12.59c1.35,8.57,9.22,14.93,18.01,14.71
			c8.8-0.22,16.26-6.93,17.26-15.59c0.45-3.89,0.17-7.8,0.17-11.71C198.45,53.22,198.47,49.31,198.48,45.39z"/>
		<path class="st1" d="M154.6,120.91c1.31,1.7,2.21,3.64,3.06,5.6c-4.82,2.57-9.92,4.39-15.15,5.89
			c-10.87,3.1-21.95,4.03-33.18,3.01c-10.71-0.97-20.93-3.84-30.64-8.49c-0.22-0.11-0.42-0.28-0.63-0.42
			c0.87-1.95,1.72-3.9,3.05-5.59c0.37,0.1,0.76,0.14,1.1,0.3c2.14,1.05,4.35,1.93,6.58,2.76c7.78,2.89,15.82,4.67,24.1,5.04
			c4.87,0.22,9.75,0.16,14.63-0.4c8-0.93,15.67-3,23.09-6.07C151.93,121.99,153.14,121.14,154.6,120.91z"/>
		<path class="st0" d="M183.23,22.57c0,2.56-1.51,4.57-3.76,5.14c-2.35,0.6-4.76-0.52-5.88-2.72c-4.42-8.66-15.83-9.78-21.8-2.11
			c-0.49,0.63-0.88,1.35-1.24,2.07c-1.29,2.5-4.04,3.51-6.58,2.38c-2.46-1.09-3.69-4.02-2.47-6.53
			c4.16-8.54,10.75-13.93,20.47-14.27c6.95-0.25,12.57,3.06,17.11,8.21c1.52,1.73,2.75,3.66,3.7,5.77
			C183.09,21.21,183.27,21.94,183.23,22.57z"/>
		<path class="st0" d="M94.64,22.66c-0.01,2.54-1.54,4.45-3.9,5.01c-2.22,0.53-4.49-0.6-5.58-2.78c-4.26-8.49-16.06-9.6-21.76-2.04
			c-0.46,0.6-0.84,1.28-1.18,1.96c-1.32,2.64-4.18,3.76-6.74,2.62c-2.63-1.17-3.86-4.18-2.54-6.85c4.18-8.5,10.83-13.72,20.49-14.06
			c6.51-0.23,11.86,2.79,16.29,7.46c1.85,1.95,3.36,4.16,4.46,6.63C94.48,21.3,94.72,22.02,94.64,22.66z"/>
		<path class="st2" d="M37.27,57.14c-0.01-3.92-0.03-7.83-0.04-11.75c11.92,0,23.83,0.01,35.75,0.01
			c-0.01,3.91-0.03,7.82-0.04,11.73C61.04,57.14,49.15,57.14,37.27,57.14z"/>
		<path class="st1" d="M79.12,57.15c-0.02-3.92-0.03-7.84-0.05-11.75c6.15-0.02,12.29-0.05,18.44-0.05c5.76,0,11.53,0.04,17.29,0.06
			c-0.01,3.91-0.03,7.82-0.04,11.74C102.88,57.14,91,57.15,79.12,57.15z"/>
		<path class="st1" d="M120.93,57.14c-0.01-3.91-0.02-7.82-0.03-11.73c1.95-0.02,3.9-0.06,5.85-0.06
			c9.96,0.01,19.93,0.03,29.89,0.04c-0.01,3.92-0.03,7.83-0.04,11.75C144.71,57.14,132.82,57.14,120.93,57.14z"/>
		<path class="st3" d="M162.77,57.13c-0.01-3.91-0.02-7.82-0.03-11.73c2.03-0.02,4.07-0.06,6.1-0.06
			c9.88,0.01,19.75,0.03,29.63,0.04c-0.01,3.91-0.03,7.83-0.04,11.74C186.55,57.14,174.66,57.13,162.77,57.13z"/>
		<path class="st0" d="M135.33,158.57c4.07,2.18,5.33,5.8,3.42,9.5c-0.83,1.61-2.18,2.55-3.84,3.14c-2.77,0.97-5.67,1.11-8.55,1.1
			c-2.45-0.01-3.81-1.32-4.17-3.81c-0.58-3.92-0.5-7.88-0.37-11.83c0.05-1.65,0.01-3.31,0.36-4.95c0.5-2.27,1.83-3.7,4.11-3.91
			c2.1-0.2,4.22-0.41,6.35-0.17c2.39,0.28,4.27,1.23,5.05,3.62c0.8,2.47,0.25,4.69-1.56,6.58
			C135.91,158.09,135.64,158.3,135.33,158.57z M128.88,164.45c0,0.36,0.03,0.61,0,0.87c-0.15,1.15,0.54,1.19,1.32,0.94
			c1.07-0.35,1.36-1.21,1.2-2.23c-0.17-1.03-0.86-1.41-1.84-1.28C128.21,162.91,129.24,164,128.88,164.45z M128.83,154.84
			c0.36,0.5-0.53,1.44,0.58,1.64c1.03,0.18,1.95-0.64,1.94-1.71c-0.01-0.94-0.41-1.65-1.48-1.72
			C128.26,152.93,129.14,154.19,128.83,154.84z"/>
		<path class="st0" d="M92.85,167.83c0.31-2.32,0.97-4.94,1.76-7.54c1.02-3.37,2.01-6.75,3.6-9.9c1.91-3.81,6.64-4.1,8.95-0.5
			c2.53,3.96,3.92,8.44,5.31,12.88c0.47,1.49,0.82,3.03,1.16,4.55c0.49,2.18-0.49,4.05-2.35,4.59c-1.99,0.57-4.14-0.46-4.83-2.44
			c-0.25-0.71-0.58-0.9-1.27-0.88c-1.4,0.04-2.8,0.06-4.2-0.01c-0.74-0.03-1.01,0.24-1.23,0.91c-0.61,1.88-2.21,2.83-4.02,2.49
			C93.9,171.66,92.83,170.24,92.85,167.83z M102.99,157.76c-0.07-0.01-0.15-0.02-0.22-0.04c-0.26,1.01-0.52,2.02-0.77,3.03
			c-0.57,2.3-0.54,2.3,1.83,2.11c0.63-0.05,0.67-0.26,0.51-0.77C103.88,160.65,103.44,159.2,102.99,157.76z"/>
		<path class="st0" d="M190.79,147.4c1.78,0.04,3.18,0.8,4.21,2.25c0.97,1.36,1.65,2.86,2.29,4.39c1.84,4.34,3.37,8.78,4.35,13.39
			c0.44,2.1-0.53,3.93-2.35,4.48c-1.97,0.6-4.13-0.44-4.85-2.42c-0.25-0.68-0.54-0.93-1.26-0.9c-1.44,0.06-2.89,0.04-4.33,0
			c-0.61-0.02-0.88,0.19-1.09,0.77c-0.74,2.11-2.33,3.04-4.3,2.59c-1.79-0.41-2.88-2.07-2.59-4.22c0.57-4.22,1.88-8.25,3.26-12.26
			c0.65-1.88,1.29-3.77,2.27-5.52C187.36,148.25,188.85,147.43,190.79,147.4z M190.93,157.64c-0.57,1.17-0.71,2.21-0.97,3.2
			c-0.56,2.12-0.37,2.29,1.87,2.01c0.51-0.07,0.68-0.24,0.53-0.72C191.9,160.72,191.45,159.29,190.93,157.64z"/>
		<path class="st0" d="M160.27,158.97c-0.04,3.51-1.05,6.69-3.44,9.32c-4.91,5.41-13.01,3.95-15.58-2.88
			c-1.84-4.9-1.08-9.58,2.13-13.69c2.37-3.03,5.52-4.68,9.5-3.76c3.95,0.91,5.96,3.78,7.03,7.47
			C160.24,156.58,160.3,157.77,160.27,158.97z M147.11,159.12c0.02,1.98,1.05,3.44,2.5,3.68c1.69,0.29,3.13-0.65,3.79-2.47
			c0.61-1.67,0.26-3.6-0.86-4.6c-0.91-0.8-1.96-1.03-3.06-0.49C147.83,156.05,147.16,157.49,147.11,159.12z"/>
		<path class="st0" d="M61.82,171.49c-3.8,0-7-2.04-8.4-5.7c-2.03-5.31-1.31-10.32,2.46-14.63c4.98-5.7,12.89-4.18,15.6,2.9
			c1.91,4.99,0.57,11.17-3.22,14.83C66.46,170.63,64.33,171.49,61.82,171.49z M59.15,159.17c-0.02,1.82,0.87,3.24,2.24,3.59
			c1.47,0.38,2.93-0.29,3.72-1.76c0.23-0.44,0.39-0.94,0.5-1.43c0.48-2.28-0.73-4.35-2.66-4.58c-1.85-0.22-3.66,1.58-3.8,3.79
			C59.14,158.91,59.15,159.04,59.15,159.17z"/>
		<path class="st0" d="M171.25,172.19c-2.29-0.09-4.85-1.41-6.86-3.81c-4.79-5.72-3.29-15.28,3.01-19.26
			c3.72-2.35,8.05-2.07,11.07,0.71c1.53,1.41,1.8,3.65,0.64,5.32c-0.97,1.4-2.73,1.78-3.97,0.62c-2.52-2.38-5.63-0.77-6.31,2.31
			c-0.34,1.55-0.31,3.04,0.36,4.48c1.02,2.18,3.41,2.74,5.32,1.27c2.01-1.54,3.08-1.65,4.35-0.43c1.39,1.33,1.51,3.81,0.26,5.49
			C177.63,170.88,174.83,172.21,171.25,172.19z"/>
		<path class="st0" d="M73.59,160.31c-0.01-5.91,3.54-11.03,8.68-12.43c3.17-0.87,5.96-0.1,8.36,2.11c1.36,1.25,1.59,3.47,0.59,5.03
			c-0.99,1.55-2.83,1.98-4.13,0.72c-2.02-1.96-5.1-1.32-6.14,1.93c-0.52,1.63-0.48,3.28,0.22,4.85c0.99,2.19,3.39,2.79,5.3,1.35
			c2.14-1.6,3.27-1.68,4.52-0.31c1.37,1.48,1.33,4-0.08,5.59c-2.59,2.93-6.56,3.86-10.21,2.39
			C76.36,169.79,73.6,165.44,73.59,160.31z"/>
		<path class="st0" d="M44.86,147.72c1.36,0,2.72-0.05,4.08,0.01c2.47,0.11,4.28,1.95,4.33,4.31c0.06,2.41-1.74,4.45-4.27,4.45
			c-1.49,0-1.74,0.48-1.6,1.81c0.33,3.17,0.37,6.36,0.33,9.55c-0.02,1.79-0.91,3.1-2.55,3.77c-1.64,0.68-3.18,0.37-4.49-0.85
			c-0.85-0.79-1.22-1.79-1.23-2.97c-0.04-3.32,0.1-6.63,0.44-9.93c0.11-1.1-0.14-1.37-1.22-1.36c-2.72,0.02-4.61-1.62-4.73-3.95
			c-0.11-2.24,1.33-4.07,3.68-4.47C40.01,147.7,42.44,147.62,44.86,147.72z"/>
		<path class="st3" d="M154.6,120.91c-1.46,0.23-2.67,1.08-3.99,1.63c-7.43,3.07-15.1,5.14-23.09,6.07
			c-4.88,0.57-9.76,0.63-14.63,0.4c-8.28-0.38-16.32-2.15-24.1-5.04c-2.23-0.83-4.44-1.72-6.58-2.76c-0.33-0.16-0.73-0.21-1.1-0.3
			c1.59-3.1,3.89-5.65,6.35-8.06c7.41-7.26,16.32-11.52,26.64-12.22c17-1.15,30.4,5.49,40.13,19.49
			C154.39,120.35,154.47,120.65,154.6,120.91z"/>
		<path class="st4" d="M37.27,57.14c11.89,0,23.78,0,35.67-0.01c-0.03,4.15,0.39,8.33-0.22,12.46c-1.22,8.26-8.64,14.62-17.12,14.83
			c-8.43,0.21-16.12-5.75-17.85-13.82c-0.28-1.29-0.47-2.59-0.48-3.91C37.23,63.51,37.26,60.33,37.27,57.14z"/>
		<path class="st2" d="M162.77,57.13c11.89,0,23.78,0,35.67,0c0,3.9,0.28,7.81-0.17,11.71c-0.99,8.66-8.46,15.37-17.26,15.59
			c-8.79,0.22-16.65-6.14-18.01-14.71C162.35,65.55,162.78,61.33,162.77,57.13z"/>
		<path class="st2" d="M120.93,57.14c11.89,0,23.78,0.01,35.67,0.01c-0.03,4.03,0.32,8.08-0.2,12.1
			c-1.11,8.52-8.78,15.14-17.51,15.18c-8.78,0.05-16.52-6.43-17.72-14.94C120.58,65.39,120.95,61.25,120.93,57.14z"/>
		<path class="st2" d="M79.12,57.15c11.88,0,23.76,0,35.64-0.01c-0.02,4.12,0.37,8.25-0.23,12.34c-1.24,8.58-9.02,15.05-17.84,14.93
			c-8.73-0.11-16.31-6.75-17.39-15.3C78.81,65.14,79.15,61.14,79.12,57.15z"/>
	</g>
</g>
</svg>
