<svg id="Lager_1" data-name="Lager 1" xmlns="http://www.w3.org/2000/svg" viewBox="0 0 179.74 32.99"><defs><style>.cls-1{fill:#fff;}</style></defs><title>uxfabriken_logo</title><path class="cls-1" d="M324.37,73.46l.52,0c.25.65.52,1.3.76,2,1.76,4.85,3.56,9.68,5.24,14.56.67,1.94,2.13,1.74,3.61,1.71,1.12,0,1.38-.71,1.38-1.68q0-14.41,0-28.83c0-2-1.49-1.5-2.62-1.57s-2.2,0-2.15,1.67c.07,1.93,0,3.87,0,5.8V77.18a16.61,16.61,0,0,1-2-4.19c-1.39-3.89-2.86-7.74-4.15-11.66-.77-2.31-2.56-1.78-4.15-1.73s-1.28,1.5-1.29,2.5c0,9.16,0,18.32,0,27.48,0,1.64.67,2.12,2.2,2.11s2.7-.06,2.65-2.08c-.08-2.83,0-5.67,0-8.51Q324.38,77.28,324.37,73.46ZM244.19,75c2.27-1.85,2.75-2.67,2.87-5.5A21.05,21.05,0,0,0,246.8,65c-.62-3.63-2.51-5.28-6.18-5.44-2.45-.1-4.9,0-7.35,0-1.12,0-1.68.42-1.68,1.58q0,14.42,0,28.83c0,1.13.46,1.69,1.6,1.68,2.52,0,5,0,7.55-.08A6.42,6.42,0,0,0,246.11,89C248.68,85.27,247.71,77.9,244.19,75Zm7,.65c0,4.64.09,9.3,0,13.94-.05,2,1,2.18,2.53,2.13s2.89.2,2.81-2.07c-.12-3.09-.08-6.2,0-9.29,0-.71.34-1.88.79-2,1.39-.43,1.42.94,1.66,1.8.83,2.91,1.58,5.85,2.36,8.78s.78,2.82,3.68,2.78c2.08,0,2.25-.24,1.64-2.29-1-3.46-2.12-6.9-3.05-10.39a2.35,2.35,0,0,1,.66-2,6.28,6.28,0,0,0,2.49-4.62,43.83,43.83,0,0,0,0-6.38c-.36-4.11-2.75-6.28-6.86-6.38-2.19-.06-4.39.06-6.58,0-1.6-.08-2.16.5-2.13,2.11C251.27,66.3,251.22,71,251.22,75.6Zm-78.95-2.21h.08c0-3.87-.09-7.74,0-11.61.08-2.26-1.2-2.22-2.84-2.25s-2.61.27-2.59,2.3c.1,7.09,0,14.19,0,21.28,0,.52,0,1,0,1.55-.09,2.22-.95,3.18-2.79,3.15s-2.56-1-2.64-3.09c0-.51,0-1,0-1.54q0-10.65,0-21.28c0-2.28-.13-2.25-2.88-2.37-1.8-.07-2.55.44-2.53,2.37.09,7.35,0,14.7,0,22.05a11.11,11.11,0,0,0,.14,1.73c.69,4.39,3.73,6.81,8.29,6.62s7.45-2.79,7.64-7.31C172.4,81.13,172.27,77.26,172.27,73.39ZM287.12,72.2l-.34-.07c0-.61-.07-1.22-.07-1.83,0-2.91,0-5.81,0-8.71,0-.6-.22-1.67-.47-1.71a11.07,11.07,0,0,0-4-.1c-.4.08-.74,1.49-.75,2.29-.05,8.78,0,17.55,0,26.32,0,3.33.15,3.42,3.51,3.28,1.22,0,1.76-.5,1.74-1.74a53.86,53.86,0,0,1,.06-7,28.28,28.28,0,0,1,1.44-5l.64.09c1,3.58,2,7.15,3,10.73.79,2.88.77,2.88,3.83,2.85,2.2,0,2.36-.22,1.69-2.37-1.59-5-3.25-10.06-4.72-15.14a5.87,5.87,0,0,1,.15-3.47c1.14-3,2.54-5.92,3.81-8.88.26-.61.42-1.26.63-1.91-4.24-.91-4.74-.64-6.23,3C289.77,66,288.43,69.08,287.12,72.2ZM221.87,85c.26,1.74.47,3.27.74,4.79.3,1.76,1.58,2.32,4.08,1.82,1.65-.33,1-1.56.88-2.46q-2.2-12.66-4.5-25.3c-.9-5-.06-4.24-5.3-4.33a1.72,1.72,0,0,0-2,1.61c-1.67,9.59-3.35,19.17-5,28.75a1.85,1.85,0,0,0,.42,1.52c1.58,1.18,4.29-.07,4.61-2.05a31.58,31.58,0,0,1,.56-3.23c.12-.43.63-1,1-1.07C218.84,85,220.32,85,221.87,85Zm-38-4.34h.39c.91,2.82,1.94,5.61,2.7,8.46.54,2,1.61,2.68,3.62,2.53,2.23-.17,2.37-.21,1.59-2.39-1.5-4.19-3.09-8.34-4.5-12.55a5.25,5.25,0,0,1,0-3.09c1.31-4,2.81-8,4.17-12,.19-.58.25-1.61-.07-1.87-1.41-1.11-4.64.12-5.16,1.86-.81,2.71-1.6,5.43-2.41,8.14a48.5,48.5,0,0,1-2.4-7c-.92-3.2-.92-3.12-4.21-3.16-1.74,0-2,.62-1.43,2.1,1.44,3.93,2.89,7.86,4.16,11.85a6,6,0,0,1,0,3.48c-1.42,4.28-3.06,8.48-4.53,12.74-.18.53-.08,1.57.26,1.79,1.57,1,4.24-.07,4.84-1.84C182,86.67,182.92,83.68,183.91,80.69ZM306.85,64.1c2.28,0,4.4-.06,6.51,0,1.83.06,1.89-1,1.9-2.39s-.21-2.23-1.88-2.19c-3.36.08-6.71.07-10.07,0-1.34,0-1.88.53-1.88,1.82q0,14.22,0,28.45c0,1.27.52,1.88,1.86,1.86,3.49,0,7-.06,10.45,0,2,0,1.82-1.32,1.86-2.63s-.14-2.43-1.94-2.36c-2.23.09-4.47,0-6.77,0V77.35c1.49,0,2.84-.06,4.18,0,1.66.09,1.93-.83,1.89-2.19s.07-2.54-1.83-2.43c-1.39.07-2.8,0-4.29,0Zm-105.54,0c2.3,0,4.48,0,6.66,0,1.8,0,1.91-1,1.91-2.4s-.26-2.21-1.91-2.18c-3.41.07-6.83.06-10.25,0-1.3,0-1.87.43-1.87,1.78q0,14.22,0,28.44c0,1.83,1,2,2.39,1.89s3,.41,3-1.91c0-3.41,0-6.83,0-10.25,0-.68.09-1.35.14-2.15,1.68,0,3.16,0,4.64,0s1.71-1,1.68-2.19.16-2.45-1.65-2.42c-1.53,0-3.06,0-4.69,0Zm70,11.33c0,4.65.06,9.3,0,13.94,0,2,.88,2.36,2.61,2.33s2.87-.11,2.85-2.3q-.11-13.84,0-27.68c0-2.31-1.35-2.14-2.92-2.19s-2.57.22-2.54,2.16C271.4,66.27,271.34,70.85,271.34,75.43Z" transform="translate(-156.13 -59.32)"/><path d="M324.37,73.46q0,3.81,0,7.64c0,2.84-.06,5.68,0,8.51.05,2-1.15,2.06-2.65,2.08s-2.21-.47-2.2-2.11c0-9.16,0-18.32,0-27.48,0-1-.42-2.43,1.29-2.5s3.38-.58,4.15,1.73c1.29,3.92,2.76,7.77,4.15,11.66a16.61,16.61,0,0,0,2,4.19V67c0-1.93.05-3.87,0-5.8-.05-1.64.95-1.76,2.15-1.67s2.63-.48,2.62,1.57q0,14.42,0,28.83c0,1-.26,1.65-1.38,1.68-1.48,0-2.94.23-3.61-1.71-1.68-4.88-3.48-9.71-5.24-14.56-.24-.66-.51-1.31-.76-2Z" transform="translate(-156.13 -59.32)"/><path d="M244.19,75c3.52,3,4.49,10.32,1.92,14a6.42,6.42,0,0,1-5.37,2.58c-2.51.12-5,.06-7.55.08-1.14,0-1.6-.55-1.6-1.68q0-14.41,0-28.83c0-1.16.56-1.6,1.68-1.58,2.45,0,4.9-.07,7.35,0,3.67.16,5.56,1.81,6.18,5.44a21.05,21.05,0,0,1,.26,4.42C246.94,72.28,246.46,73.1,244.19,75ZM237,87c1.77.09,3.48.53,4.69-1.09.94-1.25.92-5.91,0-7.28-1.17-1.68-2.88-1.26-4.65-1.14Zm-.14-13.36c1.78-.6,3.32-.74,4.33-1.56,1.25-1,1.28-5.88,0-6.92-.89-.73-2.41-.77-3.68-.9a4.48,4.48,0,0,0-.65,2.06C236.8,68.48,236.86,70.65,236.86,73.62Z" transform="translate(-156.13 -59.32)"/><path d="M251.22,75.6c0-4.65.05-9.3,0-13.95,0-1.61.53-2.19,2.13-2.11,2.19.1,4.39,0,6.58,0,4.11.1,6.5,2.27,6.86,6.38a43.83,43.83,0,0,1,0,6.38A6.28,6.28,0,0,1,264.27,77a2.35,2.35,0,0,0-.66,2c.93,3.49,2,6.93,3.05,10.39.61,2,.44,2.27-1.64,2.29-2.9,0-2.94,0-3.68-2.78S259.81,83,259,80.09c-.24-.86-.27-2.23-1.66-1.8-.45.14-.77,1.31-.79,2-.09,3.09-.13,6.2,0,9.29.08,2.27-1.36,2-2.81,2.07s-2.58-.1-2.53-2.13C251.31,84.9,251.22,80.24,251.22,75.6ZM256.49,69v3.68a.66.66,0,0,0,0,.2c.14.4.18,1,.47,1.16,1.09.81,4.1-.09,4.25-1.46a24.34,24.34,0,0,0-.06-7c-.33-1.87-2.34-1.57-3.75-1.34-.41.07-.75,1.33-.88,2.09A15.19,15.19,0,0,0,256.49,69Z" transform="translate(-156.13 -59.32)"/><path d="M172.27,73.39c0,3.87.13,7.74,0,11.6-.19,4.52-3,7.12-7.64,7.31s-7.6-2.23-8.29-6.62a11.11,11.11,0,0,1-.14-1.73c0-7.35.05-14.7,0-22.05,0-1.93.73-2.44,2.53-2.37,2.75.12,2.87.09,2.88,2.37q0,10.63,0,21.28c0,.51,0,1,0,1.54.08,2.14.88,3.06,2.64,3.09s2.7-.93,2.79-3.15c0-.52,0-1,0-1.55,0-7.09.06-14.19,0-21.28,0-2,.89-2.34,2.59-2.3s2.92,0,2.84,2.25c-.12,3.87,0,7.74,0,11.61Z" transform="translate(-156.13 -59.32)"/><path d="M287.12,72.2c1.31-3.12,2.65-6.23,3.94-9.35,1.49-3.61,2-3.88,6.23-3-.21.65-.37,1.3-.63,1.91-1.27,3-2.67,5.87-3.81,8.88a5.87,5.87,0,0,0-.15,3.47c1.47,5.08,3.13,10.09,4.72,15.14.67,2.15.51,2.36-1.69,2.37-3.06,0-3,0-3.83-2.85-1-3.58-2-7.15-3-10.73l-.64-.09a28.28,28.28,0,0,0-1.44,5,53.86,53.86,0,0,0-.06,7c0,1.24-.52,1.69-1.74,1.74-3.36.14-3.51,0-3.51-3.28,0-8.77,0-17.54,0-26.32,0-.8.35-2.21.75-2.29a11.07,11.07,0,0,1,4,.1c.25,0,.46,1.11.47,1.71.05,2.9,0,5.8,0,8.71,0,.61.05,1.22.07,1.83Z" transform="translate(-156.13 -59.32)"/><path d="M221.87,85c-1.55,0-3-.07-4.48,0-.37,0-.88.64-1,1.07a31.58,31.58,0,0,0-.56,3.23c-.32,2-3,3.23-4.61,2.05a1.85,1.85,0,0,1-.42-1.52c1.63-9.58,3.31-19.16,5-28.75a1.72,1.72,0,0,1,2-1.61c5.24.09,4.4-.63,5.3,4.33q2.28,12.65,4.5,25.3c.16.9.77,2.13-.88,2.46-2.5.5-3.78-.06-4.08-1.82C222.34,88.3,222.13,86.77,221.87,85Zm-.61-4.65c-.63-4.08-1.21-7.91-1.8-11.75l-.43,0c-.57,3.88-1.15,7.76-1.74,11.77Z" transform="translate(-156.13 -59.32)"/><path d="M183.91,80.69c-1,3-2,6-3,9-.6,1.77-3.27,2.85-4.84,1.84-.34-.22-.44-1.26-.26-1.79,1.47-4.26,3.11-8.46,4.53-12.74a6,6,0,0,0,0-3.48c-1.27-4-2.72-7.92-4.16-11.85-.55-1.48-.31-2.12,1.43-2.1,3.29,0,3.29,0,4.21,3.16a48.5,48.5,0,0,0,2.4,7c.81-2.71,1.6-5.43,2.41-8.14.52-1.74,3.75-3,5.16-1.86.32.26.26,1.29.07,1.87-1.36,4-2.86,8-4.17,12a5.25,5.25,0,0,0,0,3.09c1.41,4.21,3,8.36,4.5,12.55.78,2.18.64,2.22-1.59,2.39-2,.15-3.08-.53-3.62-2.53-.76-2.85-1.79-5.64-2.7-8.46Z" transform="translate(-156.13 -59.32)"/><path d="M306.85,64.1v8.66c1.49,0,2.9.06,4.29,0,1.9-.11,1.79,1.14,1.83,2.43s-.23,2.28-1.89,2.19c-1.34-.08-2.69,0-4.18,0v9.36c2.3,0,4.54.06,6.77,0,1.8-.07,2,1,1.94,2.36s.18,2.66-1.86,2.63c-3.48-.06-7,0-10.45,0-1.34,0-1.87-.59-1.86-1.86q0-14.22,0-28.45c0-1.29.54-1.84,1.88-1.82,3.36.07,6.71.08,10.07,0,1.67,0,1.89.83,1.88,2.19s-.07,2.45-1.9,2.39C311.25,64,309.13,64.1,306.85,64.1Z" transform="translate(-156.13 -59.32)"/><path d="M201.31,64.1v8.66c1.63,0,3.16,0,4.69,0,1.81,0,1.62,1.25,1.65,2.42s-.07,2.24-1.68,2.19-3,0-4.64,0c-.05.8-.14,1.47-.14,2.15,0,3.42,0,6.84,0,10.25,0,2.32-1.6,1.85-3,1.91s-2.4-.06-2.39-1.89q.07-14.22,0-28.44c0-1.35.57-1.8,1.87-1.78,3.42.05,6.84.06,10.25,0,1.65,0,1.92.82,1.91,2.18s-.11,2.45-1.91,2.4C205.79,64.05,203.61,64.1,201.31,64.1Z" transform="translate(-156.13 -59.32)"/><path d="M271.34,75.43c0-4.58.06-9.16,0-13.74,0-1.94.94-2.2,2.54-2.16s2.94-.12,2.92,2.19q-.11,13.83,0,27.68c0,2.19-1.17,2.27-2.85,2.3s-2.65-.35-2.61-2.33C271.4,84.73,271.34,80.08,271.34,75.43Z" transform="translate(-156.13 -59.32)"/><path class="cls-1" d="M237,87V77.47c1.77-.12,3.48-.54,4.65,1.14,1,1.37,1,6,0,7.28C240.48,87.51,238.77,87.07,237,87Z" transform="translate(-156.13 -59.32)"/><path class="cls-1" d="M236.86,73.62c0-3-.06-5.14,0-7.32a4.48,4.48,0,0,1,.65-2.06c1.27.13,2.79.17,3.68.9,1.25,1,1.22,5.92,0,6.92C240.18,72.88,238.64,73,236.86,73.62Z" transform="translate(-156.13 -59.32)"/><path class="cls-1" d="M256.49,69a15.19,15.19,0,0,1,0-2.7c.13-.76.47-2,.88-2.09,1.41-.23,3.42-.53,3.75,1.34a24.34,24.34,0,0,1,.06,7c-.15,1.37-3.16,2.27-4.25,1.46-.29-.21-.33-.76-.47-1.16a.66.66,0,0,1,0-.2Z" transform="translate(-156.13 -59.32)"/><path class="cls-1" d="M221.26,80.38h-4c.59-4,1.17-7.89,1.74-11.77l.43,0C220.05,72.47,220.63,76.3,221.26,80.38Z" transform="translate(-156.13 -59.32)"/></svg>